<?xml version="1.0" encoding="UTF-8" ?>
<!DOCTYPE svg PUBLIC "-//W3C//DTD SVG 1.1//EN" "http://www.w3.org/Graphics/SVG/1.1/DTD/svg11.dtd">
<svg width="330pt" height="372pt" viewBox="0 0 330 372" version="1.1" xmlns="http://www.w3.org/2000/svg">
<g id="#e7302aff">
<path fill="#e7302a" opacity="1.00" d=" M 147.57 27.78 C 177.86 24.35 209.16 29.76 236.39 43.55 C 265.57 58.11 289.95 82.02 305.20 110.84 C 321.17 140.66 326.87 175.70 321.73 209.10 C 317.36 237.96 304.74 265.52 285.70 287.65 C 265.29 311.69 237.47 329.34 207.02 337.56 C 174.96 346.25 140.16 344.64 109.12 332.77 C 80.01 321.78 54.43 301.84 36.43 276.50 C 15.93 247.83 5.57 212.13 7.50 176.95 C 8.99 144.46 20.93 112.57 41.14 87.09 C 66.82 54.18 106.04 32.24 147.57 27.78 M 148.56 36.80 C 108.33 41.08 70.46 62.86 46.28 95.25 C 26.28 121.62 15.56 154.84 16.42 187.93 C 16.86 220.70 28.71 253.16 49.39 278.57 C 67.35 300.95 91.95 317.92 119.26 326.73 C 148.16 336.15 179.95 336.44 209.03 327.55 C 241.74 317.68 270.66 296.03 289.55 267.58 C 303.56 246.66 312.09 222.10 314.01 196.98 C 316.77 164.14 308.24 130.43 289.99 102.96 C 271.71 75.01 243.72 53.56 211.95 43.25 C 191.62 36.45 169.82 34.57 148.56 36.80 Z" />
<path fill="#e7302a" opacity="1.00" d=" M 149.51 42.77 C 174.43 40.05 200.07 43.80 222.99 53.99 C 253.64 67.40 279.21 92.00 293.89 122.05 C 306.61 147.86 311.24 177.58 306.91 206.03 C 302.18 238.59 285.63 269.20 261.16 291.15 C 240.09 310.22 213.23 322.83 185.06 326.62 C 155.84 330.76 125.38 325.46 99.26 311.74 C 75.34 299.24 55.10 279.82 41.58 256.46 C 28.52 234.03 21.82 207.94 22.45 181.99 C 22.91 150.80 34.18 119.95 53.72 95.66 C 77.01 66.31 112.23 46.77 149.51 42.77 M 156.26 56.70 C 156.65 58.36 155.65 60.90 157.95 61.56 C 157.90 66.20 158.19 70.87 157.77 75.50 C 157.41 75.79 156.70 76.38 156.34 76.67 C 156.36 77.89 156.39 79.11 156.42 80.34 C 162.25 80.30 168.08 80.27 173.91 80.37 C 173.94 78.64 173.95 76.91 173.95 75.18 C 170.64 75.64 167.34 76.15 163.99 76.08 C 163.99 74.15 163.99 72.21 164.01 70.28 C 165.06 70.81 166.11 71.36 167.14 71.92 C 168.32 71.93 169.50 71.94 170.67 71.95 C 170.64 69.70 170.62 67.45 170.59 65.20 C 168.35 65.39 166.14 65.80 163.99 66.43 C 163.99 64.60 164.00 62.77 164.00 60.94 C 166.21 61.03 168.57 60.66 170.59 61.79 C 171.73 61.89 172.88 61.97 174.03 62.04 C 174.02 60.26 174.02 58.48 174.01 56.69 C 168.09 56.69 162.17 56.67 156.26 56.70 M 180.10 64.87 C 178.97 67.66 181.40 69.76 182.84 71.82 C 185.71 72.25 188.53 72.92 191.29 73.82 C 190.78 75.39 191.23 77.60 189.60 78.58 C 187.76 78.94 185.93 78.15 184.22 77.59 C 183.84 76.48 183.64 75.32 183.60 74.12 C 181.76 73.86 179.93 73.57 178.10 73.29 C 178.03 74.21 177.87 76.05 177.79 76.97 C 178.62 78.30 179.45 79.62 180.26 80.95 C 183.85 81.96 187.52 82.65 191.17 83.43 C 192.63 82.53 194.16 81.73 195.49 80.64 C 196.22 78.56 196.54 76.36 197.04 74.23 C 195.98 72.85 195.13 71.28 193.80 70.14 C 191.28 69.09 188.46 69.05 185.95 67.96 C 185.55 66.26 186.15 64.54 186.31 62.85 C 188.58 62.84 190.83 63.14 192.99 63.83 C 193.00 64.72 193.00 66.50 193.01 67.40 C 194.71 67.73 196.41 68.05 198.11 68.36 C 198.46 67.22 198.80 66.08 199.15 64.95 C 198.13 63.37 197.35 61.56 195.93 60.30 C 192.68 59.33 189.35 58.69 186.02 58.09 C 182.62 58.61 180.20 61.44 180.10 64.87 M 143.45 59.29 C 139.18 60.15 134.89 60.99 130.66 62.01 C 130.98 63.85 131.92 65.42 133.39 66.56 C 134.23 71.00 135.42 75.39 135.99 79.88 C 135.76 80.33 135.29 81.24 135.05 81.69 C 135.12 82.81 135.20 83.93 135.29 85.06 C 140.43 84.13 145.57 83.19 150.64 81.93 C 151.51 80.56 152.40 79.20 153.30 77.85 C 152.22 72.56 151.49 67.17 150.00 61.98 C 148.42 60.20 145.96 58.45 143.45 59.29 M 96.82 75.40 C 97.57 77.09 98.37 78.77 99.24 80.42 C 101.24 81.22 102.50 82.94 103.37 84.84 C 104.77 87.89 107.43 90.89 106.16 94.46 C 102.22 90.43 98.70 86.02 95.44 81.43 C 93.29 81.12 91.13 80.63 88.95 80.71 C 85.49 82.81 82.59 85.69 79.42 88.18 C 79.20 90.16 78.85 92.12 78.83 94.11 C 81.67 98.79 85.67 102.66 88.82 107.13 C 88.15 107.47 86.82 108.14 86.15 108.48 C 82.24 107.25 78.26 106.24 74.39 104.89 C 72.95 102.90 71.16 101.13 68.93 100.08 C 65.19 103.35 62.66 107.76 59.33 111.42 C 61.44 113.08 63.59 114.72 65.87 116.15 C 67.74 119.78 70.05 123.21 71.60 127.00 C 71.35 127.67 70.86 129.01 70.61 129.68 C 66.31 129.80 62.56 127.17 58.98 125.09 C 56.27 123.40 52.75 124.59 50.42 126.37 C 47.57 131.23 45.47 136.50 43.05 141.59 C 44.98 142.40 46.90 143.34 49.02 143.48 C 53.56 143.80 57.26 146.76 61.45 148.21 C 61.46 149.93 61.06 151.98 59.08 152.40 C 55.44 153.33 51.69 154.01 47.94 154.35 C 45.28 153.80 42.70 152.90 40.07 152.22 C 39.03 157.16 37.92 162.09 37.04 167.07 C 40.62 167.84 44.55 167.87 47.56 170.23 C 50.72 172.64 55.07 174.22 56.13 178.49 C 51.39 178.55 46.67 179.21 41.93 178.90 C 38.97 178.73 37.05 181.68 35.74 183.92 C 35.91 189.27 34.26 196.51 40.01 199.57 C 45.33 200.09 50.69 199.45 56.03 199.58 C 57.85 199.85 59.14 198.44 60.24 197.24 C 63.39 194.00 62.09 189.01 61.91 184.98 C 61.91 182.05 59.16 180.34 57.64 178.17 C 58.59 178.26 60.51 178.43 61.47 178.52 C 62.23 174.94 62.97 171.35 63.68 167.77 C 61.56 167.28 59.11 167.40 57.28 166.11 C 57.31 164.54 57.55 162.99 57.71 161.43 C 60.11 161.89 62.51 162.38 64.91 162.84 C 65.80 155.60 68.06 148.63 71.81 142.35 C 68.92 140.41 65.45 140.19 62.08 139.88 C 62.33 138.67 62.59 137.47 62.84 136.26 C 66.14 137.61 69.36 139.15 72.56 140.74 C 74.80 134.62 78.39 129.15 82.87 124.44 C 81.26 122.97 79.55 121.58 78.15 119.90 C 78.55 118.39 79.87 117.33 80.73 116.07 C 82.47 117.40 84.16 118.81 86.06 119.91 C 88.76 117.50 90.70 114.39 92.97 111.60 C 91.97 110.54 90.97 109.48 89.98 108.42 C 92.10 108.27 94.35 108.80 96.41 108.19 C 99.46 106.01 102.48 103.69 105.12 101.02 C 105.73 98.89 105.83 96.65 106.21 94.47 C 107.10 95.87 107.99 97.27 108.86 98.68 C 114.88 95.57 120.79 92.27 126.91 89.34 C 125.89 87.23 124.83 85.12 123.76 83.03 C 122.48 83.33 121.20 83.64 119.92 83.96 C 118.63 81.39 117.73 78.47 115.75 76.35 C 113.31 76.15 111.01 78.05 108.58 78.49 C 108.93 77.89 109.63 76.68 109.98 76.08 C 112.83 75.27 115.65 74.36 118.20 72.82 C 117.16 70.49 115.99 68.22 114.75 66.00 C 108.80 69.18 102.84 72.34 96.82 75.40 M 213.23 71.09 C 213.39 71.98 213.55 72.87 213.72 73.75 C 211.29 77.11 210.53 82.27 206.36 83.91 C 205.25 85.65 204.23 87.44 203.23 89.24 C 207.04 91.25 210.81 93.34 214.45 95.64 C 215.54 93.71 216.62 91.78 217.67 89.82 C 216.78 88.73 215.91 87.62 215.07 86.50 C 217.68 86.94 220.00 88.25 222.23 89.60 C 223.93 86.90 225.42 84.07 226.47 81.05 C 227.80 81.65 229.14 82.26 230.48 82.87 C 231.62 80.67 232.79 78.48 233.95 76.29 C 228.10 72.88 222.07 69.78 216.29 66.25 C 215.26 67.86 214.25 69.48 213.23 71.09 M 233.27 83.20 C 229.84 86.88 226.64 90.78 223.24 94.49 C 223.33 96.53 223.27 98.59 223.67 100.60 C 226.06 103.76 229.47 105.96 232.32 108.69 C 234.41 108.71 236.51 108.70 238.61 108.73 C 238.02 109.26 236.85 110.32 236.26 110.85 C 238.45 113.86 240.60 116.89 242.62 120.01 C 246.38 118.89 247.96 115.21 250.61 112.70 C 251.19 113.72 251.78 114.74 252.37 115.77 C 249.53 117.62 246.76 119.56 244.00 121.53 C 245.79 124.29 247.73 126.96 249.79 129.55 C 250.87 128.98 251.94 128.39 253.00 127.78 C 254.06 126.80 254.52 125.40 255.09 124.12 C 256.62 122.84 258.14 121.53 259.39 119.97 C 261.99 118.91 264.36 117.39 266.59 115.70 C 266.93 113.62 267.28 111.54 267.60 109.46 C 264.30 105.07 261.36 100.41 257.91 96.14 C 255.78 96.48 254.17 98.07 252.40 99.17 C 252.52 99.60 252.76 100.47 252.87 100.91 C 248.62 103.13 245.32 108.54 240.01 107.52 C 243.39 103.42 246.87 99.40 250.47 95.49 C 250.36 93.36 250.25 91.23 250.13 89.10 C 247.06 86.81 244.45 83.99 241.44 81.64 C 238.74 81.19 235.12 80.62 233.27 83.20 M 253.00 127.78 C 252.47 129.87 251.69 131.90 251.35 134.04 C 252.31 137.87 254.25 141.38 255.77 145.01 C 257.72 145.86 259.64 146.78 261.50 147.83 C 260.65 148.00 258.94 148.34 258.08 148.51 C 258.53 155.34 260.18 162.00 261.50 168.69 C 263.96 168.13 266.42 167.59 268.89 167.07 C 268.22 164.44 268.49 160.89 265.83 159.35 L 265.47 159.79 L 265.22 158.88 C 266.28 158.26 266.93 157.12 267.86 156.33 C 268.34 158.76 268.84 161.19 269.46 163.59 C 272.26 162.96 275.09 162.41 277.91 161.87 C 277.51 159.44 277.09 157.00 276.72 154.57 C 277.27 154.80 278.37 155.27 278.92 155.51 C 278.79 158.64 278.86 161.78 279.44 164.88 C 281.94 164.64 284.45 164.34 286.94 163.97 C 286.16 157.30 284.62 150.76 283.52 144.15 C 281.65 144.30 279.79 144.48 277.93 144.68 C 276.38 147.32 273.18 147.27 270.55 147.86 C 267.91 148.23 264.84 149.48 262.75 147.10 C 267.49 144.55 272.72 143.08 277.47 140.58 C 278.50 138.84 279.33 136.92 279.64 134.91 C 278.66 131.01 276.65 127.47 275.21 123.73 C 273.38 122.95 271.57 122.06 269.64 121.54 C 263.89 123.00 258.83 126.49 253.00 127.78 M 168.99 135.31 L 169.26 135.69 C 170.55 136.07 171.88 136.32 173.23 136.44 C 171.50 137.12 169.51 136.37 167.87 137.18 L 167.89 136.40 C 166.70 134.97 164.60 135.14 163.14 136.03 C 162.97 136.25 162.64 136.67 162.48 136.89 L 161.86 136.34 C 159.01 136.29 156.17 136.90 153.31 136.89 L 153.44 135.22 C 151.58 135.66 150.87 137.20 150.42 138.87 C 147.26 138.89 144.11 138.89 140.95 138.87 C 140.34 137.83 139.74 136.78 139.06 135.80 C 136.28 136.08 135.61 140.35 132.53 139.53 C 131.09 138.76 130.49 137.11 129.58 135.85 C 127.34 136.06 124.82 136.14 123.68 138.45 L 123.57 138.48 C 123.09 139.26 122.62 140.03 122.14 140.81 C 117.64 141.75 112.88 143.05 109.85 146.79 C 109.21 148.38 108.57 149.97 107.91 151.56 C 105.37 151.68 102.72 151.91 100.82 153.80 C 100.78 158.42 101.02 163.07 102.08 167.59 C 102.75 168.39 103.39 169.22 103.97 170.10 C 104.43 172.47 101.57 172.76 100.03 173.62 C 94.42 175.64 89.61 179.38 85.72 183.83 C 83.62 185.92 83.94 189.09 83.35 191.77 C 83.64 192.84 83.93 193.92 84.21 195.00 C 82.49 195.00 80.78 195.00 79.06 195.00 L 78.64 193.09 C 74.78 196.83 77.82 202.56 75.77 207.06 C 75.30 207.76 74.83 208.47 74.36 209.17 C 73.82 212.79 74.15 216.47 74.85 220.05 C 75.03 221.77 77.10 222.15 78.29 223.01 C 79.39 225.95 80.18 228.99 81.08 231.99 C 78.41 233.31 73.61 233.90 73.43 237.52 C 76.10 239.80 79.70 240.37 83.03 241.05 C 96.89 243.31 110.96 243.86 124.99 243.76 C 137.66 243.78 150.33 243.78 162.99 243.54 C 170.56 242.46 178.22 242.79 185.81 242.13 C 206.82 240.27 228.05 238.75 248.52 233.39 C 251.69 232.13 256.60 231.62 257.03 227.43 C 253.80 225.99 250.42 224.94 247.00 224.12 C 248.79 217.99 248.53 211.55 248.60 205.24 C 250.56 205.00 252.52 204.75 254.48 204.48 C 254.49 203.67 254.50 202.04 254.50 201.23 C 253.14 200.76 251.28 201.03 250.45 199.59 C 248.02 196.56 246.39 192.95 243.82 190.04 C 240.67 189.15 237.37 189.74 234.17 189.28 C 229.58 187.61 224.14 187.37 221.06 183.00 C 221.26 180.21 222.10 177.53 222.62 174.80 C 222.15 174.88 221.20 175.06 220.73 175.15 C 220.53 178.45 219.52 181.61 218.47 184.71 C 215.34 184.35 211.73 185.83 208.94 184.01 C 210.31 184.09 211.69 184.16 213.06 184.21 C 212.44 181.82 211.46 179.44 211.51 176.93 C 212.82 175.09 215.16 174.41 217.00 173.21 C 214.81 168.75 218.55 164.92 220.19 161.01 C 221.57 158.66 222.24 155.17 225.60 154.97 L 225.58 154.71 L 226.03 154.96 C 226.05 155.52 226.09 156.66 226.12 157.22 L 226.86 157.29 C 226.93 156.89 227.08 156.08 227.15 155.68 L 227.54 155.96 C 227.46 155.75 227.32 155.32 227.25 155.10 C 228.53 151.17 228.71 146.73 231.35 143.35 C 232.85 141.83 232.58 139.33 230.97 138.01 C 228.78 135.41 225.00 136.59 222.20 137.29 C 221.77 138.73 221.69 140.24 221.52 141.73 C 220.17 142.65 218.73 143.45 217.54 144.58 C 216.33 146.67 215.54 149.06 213.65 150.68 C 209.60 154.47 205.81 158.55 201.59 162.16 C 200.18 155.35 201.00 147.44 195.90 142.00 C 195.89 139.74 195.79 137.48 195.73 135.22 C 194.19 135.27 192.62 135.07 191.10 135.40 C 190.79 135.28 190.16 135.03 189.84 134.91 C 182.89 135.06 175.91 134.68 168.99 135.31 M 225.13 161.68 C 226.43 161.41 226.68 160.64 225.86 159.39 C 224.55 159.67 224.31 160.43 225.13 161.68 M 224.14 165.63 C 225.45 165.38 225.70 164.62 224.90 163.37 C 223.58 163.62 223.33 164.38 224.14 165.63 M 223.12 169.67 C 224.44 169.41 224.70 168.66 223.89 167.41 C 222.57 167.67 222.31 168.42 223.12 169.67 M 261.49 172.52 C 261.50 176.68 261.18 180.85 261.43 185.00 C 262.48 186.73 264.07 188.05 265.45 189.51 C 268.11 189.55 270.76 189.57 273.42 189.54 C 274.69 188.34 275.97 187.14 277.27 185.97 C 277.31 186.89 277.38 188.72 277.41 189.63 C 279.28 189.65 281.15 189.75 283.01 189.60 C 284.78 188.62 286.02 186.91 287.47 185.52 C 287.58 181.47 287.58 177.42 287.63 173.36 C 285.94 171.72 284.70 169.10 282.08 168.88 C 280.07 168.60 278.00 168.39 276.00 168.80 C 274.36 169.80 272.92 171.08 271.42 172.27 C 271.40 171.37 271.37 169.56 271.35 168.66 C 269.56 168.63 267.78 168.60 266.00 168.57 C 264.50 169.89 263.00 171.21 261.49 172.52 M 222.18 171.62 C 222.05 172.07 221.79 172.96 221.66 173.41 C 222.66 174.76 224.13 172.25 222.93 171.57 L 222.18 171.62 M 80.20 192.91 C 80.95 196.18 82.87 191.02 80.20 192.91 M 273.25 199.45 C 270.84 199.47 268.43 199.53 266.02 199.58 C 267.61 201.46 269.36 203.23 270.72 205.30 C 270.56 207.80 269.68 210.19 269.10 212.61 C 271.37 211.55 273.67 210.56 275.97 209.57 C 277.89 210.82 279.83 212.04 281.78 213.25 C 281.83 210.89 281.38 208.46 281.95 206.15 C 283.50 204.39 285.36 202.96 287.14 201.44 C 284.83 200.90 282.47 200.49 280.25 199.64 C 279.00 197.55 278.31 195.19 277.45 192.94 C 276.02 195.09 274.63 197.27 273.25 199.45 M 47.09 209.13 C 44.75 209.49 42.37 209.47 40.01 209.56 C 41.58 211.37 43.23 213.12 44.63 215.07 C 44.55 217.47 43.73 219.77 43.17 222.09 C 45.46 221.29 47.72 220.43 49.97 219.52 C 51.91 220.74 53.87 221.96 55.83 223.17 C 55.85 220.81 55.28 218.34 55.93 216.04 C 57.50 214.28 59.38 212.82 61.14 211.25 C 58.83 210.76 56.47 210.42 54.25 209.60 C 52.98 207.53 52.29 205.17 51.39 202.92 C 50.01 205.02 48.81 207.27 47.09 209.13 M 266.17 221.86 C 265.01 224.28 264.19 226.86 263.18 229.36 C 265.27 230.54 269.01 230.68 268.68 233.91 C 269.44 233.43 270.20 232.95 270.96 232.48 C 273.34 233.37 275.72 234.27 278.11 235.17 C 279.21 232.37 280.30 229.55 281.17 226.67 C 278.00 226.48 278.05 230.24 276.93 232.32 C 275.15 231.68 273.38 231.02 271.62 230.37 C 272.04 228.98 272.51 227.61 272.82 226.20 C 270.47 224.83 270.26 228.28 269.24 229.62 C 268.16 229.10 267.08 228.59 266.01 228.08 C 266.73 226.10 267.49 224.12 267.96 222.06 C 267.51 222.01 266.62 221.91 266.17 221.86 M 48.20 242.75 C 53.93 242.54 59.65 242.16 65.36 241.63 L 64.15 239.87 C 61.07 239.60 57.98 240.00 54.90 239.98 C 57.14 237.99 59.75 236.35 61.66 234.03 C 61.62 233.47 61.54 232.34 61.50 231.78 C 56.94 235.28 52.67 239.13 48.20 242.75 M 260.68 233.58 L 260.09 235.28 C 263.80 237.86 268.39 238.95 271.86 241.89 C 271.71 242.44 271.41 243.53 271.26 244.08 L 270.09 244.61 C 265.80 243.41 262.19 240.64 258.03 239.13 C 257.87 239.58 257.56 240.49 257.40 240.95 C 260.98 242.97 264.67 244.83 268.43 246.49 C 272.28 248.19 275.87 242.14 272.54 239.56 C 268.85 237.11 264.76 235.25 260.68 233.58 M 59.32 245.42 C 53.39 247.65 52.82 256.59 58.09 259.88 C 62.48 263.38 69.69 260.49 70.47 254.94 C 71.85 248.86 65.17 242.90 59.32 245.42 M 250.81 253.04 C 249.14 258.06 253.80 263.75 259.06 263.04 C 262.49 262.93 264.81 260.15 266.45 257.45 C 267.73 257.26 268.84 256.76 269.79 255.94 C 269.11 255.58 267.75 254.87 267.07 254.51 C 266.30 251.80 265.34 248.76 262.57 247.47 C 258.01 244.87 251.98 248.15 250.81 253.04 M 74.19 261.11 C 71.35 263.33 68.40 265.42 65.56 267.64 C 64.82 268.54 62.29 269.59 64.25 270.91 C 68.50 268.86 71.77 265.30 75.72 262.77 C 76.64 263.59 77.34 264.90 78.74 264.84 C 78.97 261.75 75.96 259.57 74.22 257.31 C 71.52 257.57 74.09 259.85 74.19 261.11 M 240.08 264.05 C 241.82 265.75 244.54 267.19 243.83 270.08 C 244.59 270.08 246.10 270.08 246.85 270.08 C 248.64 271.73 250.46 273.34 252.32 274.92 C 252.51 274.43 252.90 273.47 253.10 272.98 C 251.51 271.21 249.64 269.73 247.92 268.10 C 251.20 268.43 255.14 271.42 257.87 268.51 C 255.14 267.66 252.37 266.95 249.60 266.25 C 249.99 264.06 250.24 261.29 247.94 260.05 C 244.56 258.28 242.07 261.95 240.08 264.05 M 74.75 268.77 C 74.64 272.26 71.18 273.83 69.23 276.26 C 69.48 276.64 69.98 277.39 70.23 277.77 C 72.32 276.34 74.11 274.53 76.02 272.88 C 75.52 276.04 71.76 279.77 74.79 282.53 C 75.85 279.91 76.82 277.25 77.79 274.59 C 80.01 275.31 83.10 275.77 84.27 273.16 C 85.93 270.00 82.64 267.51 80.86 265.36 C 79.03 266.82 77.44 269.30 74.75 268.77 M 233.19 272.96 C 233.56 275.04 234.67 276.92 234.90 279.06 C 238.26 279.58 240.08 282.62 242.21 284.92 C 242.65 284.61 243.52 284.01 243.96 283.70 C 242.15 281.62 240.31 279.56 238.54 277.46 C 239.58 276.62 240.62 275.80 241.65 274.97 C 243.32 276.89 244.92 278.90 246.85 280.58 L 248.39 279.96 C 246.44 276.32 243.16 273.59 240.42 270.54 C 238.24 267.73 233.53 269.65 233.19 272.96 M 88.53 273.88 C 87.36 275.30 86.19 276.72 85.02 278.13 C 84.51 277.90 83.50 277.43 82.99 277.20 C 82.92 278.40 82.86 279.60 82.80 280.80 C 81.30 282.52 79.80 284.25 78.32 285.98 C 80.49 287.91 82.59 289.97 85.12 291.45 C 86.89 288.85 82.59 287.60 81.34 285.81 C 82.54 284.39 83.74 282.97 84.95 281.55 C 86.17 282.39 87.37 283.31 88.72 283.97 C 90.78 282.23 87.19 281.00 86.53 279.62 C 87.31 278.75 88.07 277.85 88.98 277.11 C 90.67 278.10 92.07 279.50 93.52 280.81 C 94.03 280.30 94.55 279.80 95.07 279.29 C 92.94 277.43 90.78 275.60 88.53 273.88 M 226.93 276.68 C 227.69 279.97 228.62 283.22 229.42 286.51 C 226.50 284.77 223.70 282.85 220.84 281.02 C 222.23 284.29 223.86 287.44 225.40 290.64 C 226.41 292.54 227.04 295.00 229.48 295.54 C 228.97 292.65 227.64 290.03 226.42 287.40 C 228.66 288.76 230.84 290.22 233.02 291.68 C 232.42 289.07 231.75 286.49 231.10 283.89 C 232.65 285.34 234.10 286.91 235.73 288.27 C 236.65 289.62 237.50 288.32 238.28 287.64 C 234.46 284.02 230.79 280.24 226.93 276.68 M 213.70 284.95 C 215.10 288.53 217.29 291.71 219.16 295.05 C 220.28 296.91 221.23 299.15 223.64 299.62 C 222.63 295.66 220.07 292.40 218.14 288.87 C 217.05 287.15 216.23 284.66 213.70 284.95 M 203.35 291.56 C 204.84 291.49 206.33 291.37 207.81 291.21 C 209.71 295.02 211.34 298.97 213.46 302.66 C 214.03 302.66 215.19 302.66 215.76 302.66 C 213.81 298.47 211.68 294.37 209.68 290.21 C 210.78 289.20 211.90 288.16 212.31 286.65 C 209.07 287.68 205.44 288.67 203.35 291.56 M 106.28 288.35 C 104.73 289.55 103.39 291.05 101.51 291.75 C 102.80 295.18 99.44 297.75 98.86 300.96 L 100.27 301.42 C 102.04 299.43 103.04 296.92 104.29 294.61 C 105.50 295.26 106.71 295.92 107.92 296.59 C 106.59 299.24 104.20 301.75 104.69 304.95 C 108.14 302.17 109.59 297.75 111.68 293.97 C 113.80 290.75 109.54 286.50 106.28 288.35 M 196.24 293.41 C 197.17 298.76 200.17 303.54 201.91 308.67 C 204.76 307.60 207.59 306.45 210.27 305.00 C 207.96 303.06 205.47 305.10 203.16 305.85 C 201.29 301.68 199.92 297.28 197.82 293.22 C 197.43 293.26 196.64 293.36 196.24 293.41 M 112.39 303.18 C 112.82 306.71 116.02 308.82 118.99 310.16 C 120.26 306.92 121.54 303.69 122.78 300.45 C 122.21 300.38 121.06 300.24 120.49 300.17 C 119.61 302.60 118.67 305.02 117.67 307.41 C 114.74 305.27 113.05 300.80 115.99 297.91 C 118.23 295.32 121.74 296.46 124.66 296.63 C 125.39 294.46 122.52 294.30 121.08 293.98 C 116.07 293.28 111.32 298.19 112.39 303.18 M 190.47 295.17 C 191.28 299.51 193.11 303.59 193.81 307.96 C 193.83 309.71 190.89 310.45 190.27 308.74 C 188.62 305.12 188.20 301.09 186.68 297.43 C 186.15 297.25 185.08 296.87 184.55 296.69 C 185.63 301.31 186.58 306.07 188.63 310.38 C 190.84 313.21 195.64 311.51 196.08 308.10 C 195.66 304.84 194.48 301.74 193.62 298.58 C 192.96 297.12 193.00 294.38 190.47 295.17 M 125.59 302.69 C 127.83 305.45 125.35 308.80 124.96 311.79 C 127.65 312.50 130.31 313.37 133.07 313.84 C 134.79 310.65 129.71 311.39 127.90 310.41 C 128.18 308.55 128.50 306.71 128.84 304.87 C 130.40 305.10 131.97 305.25 133.55 305.35 C 133.75 303.06 130.97 303.21 129.59 302.33 C 129.81 301.50 130.26 299.85 130.49 299.02 C 132.72 299.53 134.94 300.01 137.20 300.38 C 136.53 296.61 131.66 297.64 128.94 296.38 C 128.22 298.69 128.26 301.70 125.59 302.69 M 140.10 298.54 C 139.34 303.88 138.59 309.22 137.96 314.58 C 138.48 314.41 139.53 314.08 140.05 313.92 C 140.95 310.45 141.04 306.83 141.69 303.31 C 142.85 304.45 144.12 305.53 145.04 306.89 C 144.98 309.77 144.41 312.61 144.14 315.48 C 144.68 315.26 145.77 314.84 146.31 314.63 C 147.23 309.46 147.75 304.23 148.43 299.02 C 145.34 298.79 146.02 301.95 145.58 303.99 C 143.78 302.14 141.97 300.31 140.10 298.54 M 179.42 298.63 C 178.71 302.03 178.06 305.45 177.45 308.87 C 175.63 305.85 173.91 302.78 172.09 299.77 C 171.88 305.04 171.81 310.32 172.00 315.59 C 172.52 315.57 173.55 315.52 174.07 315.50 C 174.30 312.94 174.22 310.38 174.25 307.82 C 175.63 310.17 177.01 312.52 178.43 314.86 C 178.92 312.21 179.44 309.57 180.23 306.99 C 181.00 309.28 181.74 311.58 182.44 313.89 C 183.05 313.87 184.27 313.84 184.88 313.82 C 183.04 308.76 181.50 303.59 179.42 298.63 M 149.65 300.35 C 150.53 301.71 151.96 302.35 153.48 302.74 C 153.37 307.33 153.20 311.92 153.05 316.51 C 153.56 316.34 154.59 316.01 155.10 315.85 C 155.67 311.40 155.44 306.91 155.68 302.45 C 156.44 302.45 157.97 302.47 158.73 302.48 C 158.75 301.94 158.80 300.87 158.82 300.33 C 155.76 300.22 152.70 300.11 149.65 300.35 Z" />
<path fill="#e7302a" opacity="1.00" d=" M 140.38 65.48 C 141.54 65.34 142.71 65.20 143.88 65.07 C 144.59 69.16 145.36 73.24 146.30 77.29 C 145.18 77.55 144.07 77.82 142.96 78.09 C 142.18 73.87 141.31 69.67 140.38 65.48 Z" />
<path fill="#e7302a" opacity="1.00" d=" M 221.46 78.04 C 222.37 77.13 224.41 78.34 223.90 79.57 C 222.98 80.41 220.93 79.28 221.46 78.04 Z" />
<path fill="#e7302a" opacity="1.00" d=" M 116.37 85.13 C 119.45 84.82 116.09 88.93 114.49 87.39 C 113.81 86.24 115.45 85.34 116.37 85.13 Z" />
<path fill="#e7302a" opacity="1.00" d=" M 87.23 91.03 C 88.10 90.00 89.00 89.01 89.95 88.06 C 90.77 89.02 91.58 89.98 92.39 90.95 C 91.72 93.67 93.51 95.71 95.15 97.60 C 95.83 97.39 97.20 96.98 97.88 96.77 C 97.37 98.47 96.15 99.76 94.99 101.05 C 92.41 97.72 89.16 94.79 87.23 91.03 Z" />
<path fill="#e7302a" opacity="1.00" d=" M 239.10 89.13 C 240.67 89.12 241.55 91.00 242.78 91.79 C 239.92 94.81 237.09 97.87 234.53 101.15 C 233.27 100.37 232.02 99.57 230.77 98.78 C 233.26 95.34 235.84 91.88 239.10 89.13 Z" />
<path fill="#e7302a" opacity="1.00" d=" M 257.11 108.47 C 258.38 107.52 260.11 109.64 258.79 110.62 C 257.52 111.58 255.77 109.45 257.11 108.47 Z" />
<path fill="#e7302a" opacity="1.00" d=" M 51.50 135.98 C 52.51 134.25 52.80 131.51 55.09 131.00 C 56.36 131.51 58.24 131.87 58.26 133.60 C 58.11 135.24 57.17 136.68 56.64 138.20 C 54.91 137.48 53.21 136.73 51.50 135.98 Z" />
<path fill="#e7302a" opacity="1.00" d=" M 258.72 135.00 C 262.74 133.19 266.72 131.17 271.06 130.21 C 271.34 131.45 271.63 132.69 271.92 133.93 C 270.98 134.42 270.04 134.90 269.10 135.38 C 266.01 132.94 262.39 135.82 260.97 138.70 C 259.62 137.94 259.44 136.23 258.72 135.00 Z" />
<path fill="#e7302a" opacity="1.00" d=" M 107.23 169.88 C 106.82 163.84 108.86 157.84 111.54 152.52 C 112.23 157.88 111.32 163.29 110.55 168.60 C 110.28 170.14 108.31 169.56 107.23 169.88 Z" />
<path fill="#e7302a" opacity="1.00" d=" M 114.38 153.30 C 117.09 153.04 120.05 151.89 122.57 153.49 C 123.30 157.95 122.85 162.56 121.79 166.94 C 121.43 168.63 119.87 170.15 118.05 169.93 C 116.31 169.92 113.60 170.34 113.23 168.00 C 112.89 163.08 113.65 158.16 114.38 153.30 Z" />
<path fill="#e7302a" opacity="1.00" d=" M 133.33 155.53 C 139.81 153.69 146.55 155.06 153.15 155.18 C 156.69 155.29 155.94 159.74 155.82 162.13 C 155.95 164.29 154.56 167.04 152.00 166.39 C 146.01 165.60 139.96 166.16 133.96 165.69 C 131.71 165.41 132.06 162.65 131.97 161.00 C 132.10 159.17 131.57 156.75 133.33 155.53 Z" />
<path fill="#e7302a" opacity="1.00" d=" M 46.55 161.29 C 48.90 160.89 51.25 160.50 53.61 160.18 C 53.22 161.92 52.88 163.68 52.25 165.35 C 50.16 164.28 48.32 162.81 46.55 161.29 Z" />
<path fill="#e7302a" opacity="1.00" d=" M 268.25 177.08 C 269.01 176.96 270.51 176.73 271.26 176.61 C 271.25 178.19 271.24 179.77 271.23 181.36 C 270.45 181.34 268.90 181.32 268.12 181.31 C 268.16 179.90 268.21 178.49 268.25 177.08 Z" />
<path fill="#e7302a" opacity="1.00" d=" M 277.93 177.14 C 278.63 177.17 280.02 177.22 280.71 177.25 C 280.77 178.62 280.83 179.99 280.89 181.36 C 280.09 181.44 278.48 181.59 277.67 181.67 C 277.75 180.16 277.84 178.65 277.93 177.14 Z" />
<path fill="#e7302a" opacity="1.00" d=" M 42.91 187.24 C 44.98 186.64 47.69 185.63 47.53 188.89 C 49.97 188.47 53.81 189.90 54.35 186.33 C 55.40 187.80 55.42 189.61 55.61 191.34 C 51.23 191.41 46.85 191.58 42.46 191.58 C 42.49 190.12 42.64 188.67 42.91 187.24 Z" />
<path fill="#e7302a" opacity="1.00" d=" M 213.48 221.43 C 215.34 219.18 217.56 217.06 220.65 216.90 C 220.83 218.49 221.01 220.08 221.20 221.66 C 218.63 221.62 216.05 221.56 213.48 221.43 Z" />
<path fill="#e7302a" opacity="1.00" d=" M 199.86 218.35 C 203.00 216.60 206.31 218.85 208.24 221.26 C 205.09 221.53 201.89 221.57 198.81 220.77 C 199.07 220.16 199.60 218.95 199.86 218.35 Z" />
<path fill="#e7302a" opacity="1.00" d=" M 60.25 247.40 C 64.76 245.58 69.75 250.43 68.26 254.99 C 67.38 258.97 61.94 260.56 58.94 257.90 C 55.34 255.29 55.94 248.92 60.25 247.40 Z" />
<path fill="#e7302a" opacity="1.00" d=" M 253.05 252.99 C 254.07 249.55 258.41 247.70 261.58 249.44 C 263.63 250.34 264.16 252.67 264.98 254.53 C 263.03 254.46 261.09 254.38 259.16 254.29 C 259.17 254.83 259.21 255.90 259.23 256.43 C 260.97 256.56 262.71 256.71 264.45 256.89 C 262.92 259.01 260.85 261.35 257.92 260.88 C 254.16 260.76 251.63 256.39 253.05 252.99 Z" />
<path fill="#e7302a" opacity="1.00" d=" M 244.41 262.48 C 246.24 260.37 249.12 263.20 247.25 265.12 C 246.18 267.92 241.46 263.51 244.41 262.48 Z" />
<path fill="#e7302a" opacity="1.00" d=" M 77.71 271.18 C 78.75 270.17 79.81 269.18 80.86 268.19 C 82.08 269.67 82.73 271.43 82.36 273.37 C 80.62 273.06 79.01 272.36 77.71 271.18 Z" />
<path fill="#e7302a" opacity="1.00" d=" M 235.83 271.85 C 237.53 270.61 239.04 272.27 240.28 273.32 C 239.25 274.26 238.22 275.20 237.19 276.14 C 236.11 274.99 234.77 273.49 235.83 271.85 Z" />
<path fill="#e7302a" opacity="1.00" d=" M 105.19 292.45 C 106.23 291.43 107.06 289.67 108.81 290.15 C 110.96 291.13 109.47 293.32 108.79 294.80 C 107.59 294.02 106.39 293.24 105.19 292.45 Z" />
</g>
<g id="#ffffffff">
<path fill="#ffffff" opacity="1.00" d=" M 148.56 36.80 C 169.82 34.57 191.62 36.45 211.95 43.25 C 243.72 53.56 271.71 75.01 289.99 102.96 C 308.24 130.43 316.77 164.14 314.01 196.98 C 312.09 222.10 303.56 246.66 289.55 267.58 C 270.66 296.03 241.74 317.68 209.03 327.55 C 179.95 336.44 148.16 336.15 119.26 326.73 C 91.95 317.92 67.35 300.95 49.39 278.57 C 28.71 253.16 16.86 220.70 16.42 187.93 C 15.56 154.84 26.28 121.62 46.28 95.25 C 70.46 62.86 108.33 41.08 148.56 36.80 M 149.51 42.77 C 112.23 46.77 77.01 66.31 53.72 95.66 C 34.18 119.95 22.91 150.80 22.45 181.99 C 21.82 207.94 28.52 234.03 41.58 256.46 C 55.10 279.82 75.34 299.24 99.26 311.74 C 125.38 325.46 155.84 330.76 185.06 326.62 C 213.23 322.83 240.09 310.22 261.16 291.15 C 285.63 269.20 302.18 238.59 306.91 206.03 C 311.24 177.58 306.61 147.86 293.89 122.05 C 279.21 92.00 253.64 67.40 222.99 53.99 C 200.07 43.80 174.43 40.05 149.51 42.77 Z" />
<path fill="#ffffff" opacity="1.00" d=" M 156.26 56.70 C 162.17 56.67 168.09 56.69 174.01 56.69 C 174.02 58.48 174.02 60.26 174.03 62.04 C 172.88 61.97 171.73 61.89 170.59 61.79 C 168.57 60.66 166.21 61.03 164.00 60.94 C 164.00 62.77 163.99 64.60 163.99 66.43 C 166.14 65.80 168.35 65.39 170.59 65.20 C 170.62 67.45 170.64 69.70 170.67 71.95 C 169.50 71.94 168.32 71.93 167.14 71.92 C 166.11 71.36 165.06 70.81 164.01 70.28 C 163.99 72.21 163.99 74.15 163.99 76.08 C 167.34 76.15 170.64 75.64 173.95 75.18 C 173.95 76.91 173.94 78.64 173.91 80.37 C 168.08 80.27 162.25 80.30 156.42 80.34 C 156.39 79.11 156.36 77.89 156.34 76.67 C 156.70 76.38 157.41 75.79 157.77 75.50 C 158.19 70.87 157.90 66.20 157.95 61.56 C 155.65 60.90 156.65 58.36 156.26 56.70 Z" />
<path fill="#ffffff" opacity="1.00" d=" M 180.10 64.87 C 180.20 61.44 182.62 58.61 186.02 58.09 C 189.35 58.69 192.68 59.33 195.93 60.30 C 197.35 61.56 198.13 63.37 199.15 64.95 C 198.80 66.08 198.46 67.22 198.11 68.36 C 196.41 68.05 194.71 67.73 193.01 67.40 C 193.00 66.50 193.00 64.72 192.99 63.83 C 190.83 63.14 188.58 62.84 186.31 62.85 C 186.15 64.54 185.55 66.26 185.95 67.96 C 188.46 69.05 191.28 69.09 193.80 70.14 C 195.13 71.28 195.98 72.85 197.04 74.23 C 196.54 76.36 196.22 78.56 195.49 80.64 C 194.16 81.73 192.63 82.53 191.17 83.43 C 187.52 82.65 183.85 81.96 180.26 80.95 C 179.45 79.62 178.62 78.30 177.79 76.97 C 177.87 76.05 178.03 74.21 178.10 73.29 C 179.93 73.57 181.76 73.86 183.60 74.12 C 183.64 75.32 183.84 76.48 184.22 77.59 C 185.93 78.15 187.76 78.94 189.60 78.58 C 191.23 77.60 190.78 75.39 191.29 73.82 C 188.53 72.92 185.71 72.25 182.84 71.82 C 181.40 69.76 178.97 67.66 180.10 64.87 Z" />
<path fill="#ffffff" opacity="1.00" d=" M 143.45 59.29 C 145.96 58.45 148.42 60.20 150.00 61.98 C 151.49 67.17 152.22 72.56 153.30 77.85 C 152.40 79.20 151.51 80.56 150.64 81.93 C 145.57 83.19 140.43 84.13 135.29 85.06 C 135.20 83.93 135.12 82.81 135.05 81.69 C 135.29 81.24 135.76 80.33 135.99 79.88 C 135.42 75.39 134.23 71.00 133.39 66.56 C 131.92 65.42 130.98 63.85 130.66 62.01 C 134.89 60.99 139.18 60.15 143.45 59.29 M 139.11 64.38 C 140.10 69.46 141.15 74.53 142.12 79.62 C 143.83 79.16 145.60 78.82 147.26 78.16 C 146.98 73.27 145.64 68.48 144.54 63.72 C 142.72 63.86 140.91 64.13 139.11 64.38 Z" />
<path fill="#ffffff" opacity="1.00" d=" M 98.28 75.98 C 103.64 73.39 108.76 70.31 114.19 67.85 C 115.25 69.24 116.04 70.81 116.88 72.34 C 113.64 73.68 110.17 74.42 107.10 76.18 C 107.89 77.83 108.72 79.47 109.58 81.09 C 111.32 79.59 113.11 78.15 115.06 76.93 C 116.10 78.93 117.15 80.93 118.25 82.90 C 117.10 83.46 115.96 84.02 114.82 84.59 C 113.75 84.39 112.67 84.21 111.60 84.04 C 112.26 86.02 113.16 87.91 114.11 89.77 C 117.33 88.32 119.91 85.88 122.89 84.04 C 123.72 85.60 124.55 87.16 125.37 88.72 C 119.98 91.44 114.66 94.32 109.28 97.07 C 108.69 95.99 108.09 94.91 107.49 93.83 C 107.70 93.41 108.12 92.57 108.33 92.14 C 106.31 87.89 104.19 83.65 101.78 79.61 C 101.31 79.54 100.38 79.40 99.91 79.33 C 99.36 78.22 98.82 77.10 98.28 75.98 Z" />
<path fill="#ffffff" opacity="1.00" d=" M 216.48 67.98 C 221.88 70.77 227.12 73.87 232.44 76.81 C 231.51 78.35 230.61 79.92 229.70 81.47 C 226.73 79.50 224.22 76.87 220.95 75.35 C 220.08 76.95 219.18 78.54 218.44 80.20 C 219.53 80.69 220.69 80.87 221.93 80.73 C 222.92 81.28 223.91 81.83 224.90 82.37 C 223.86 84.31 222.80 86.24 221.78 88.19 C 219.78 86.91 217.99 85.37 216.24 83.79 C 215.38 85.42 214.52 87.06 213.71 88.72 C 214.36 89.04 215.65 89.68 216.30 90.01 C 215.54 91.27 214.80 92.54 214.06 93.82 C 210.96 92.16 207.93 90.37 204.82 88.76 C 205.74 86.74 207.29 85.24 209.18 84.12 C 211.48 80.52 213.45 76.70 215.46 72.93 C 215.26 72.47 214.87 71.56 214.67 71.11 C 215.27 70.07 215.87 69.02 216.48 67.98 Z" />
<path fill="#ffffff" opacity="1.00" d=" M 89.17 82.00 C 90.88 81.43 92.73 82.28 94.48 82.40 C 95.43 83.54 96.38 84.66 97.35 85.78 C 95.90 87.11 94.42 88.40 92.94 89.70 C 92.53 89.19 91.70 88.16 91.29 87.65 C 90.82 87.53 89.89 87.31 89.42 87.19 C 88.08 88.61 85.28 89.58 86.19 92.01 C 88.52 95.47 91.46 98.50 93.85 101.93 C 95.82 101.68 97.53 100.51 98.78 99.02 C 99.51 97.43 97.90 96.14 97.25 94.85 C 96.74 95.09 95.73 95.58 95.22 95.83 C 94.54 94.88 93.86 93.94 93.18 93.00 C 95.15 91.38 97.15 89.80 99.13 88.21 C 101.04 90.56 103.10 92.81 104.69 95.40 C 104.70 97.16 104.40 98.91 104.18 100.65 C 101.06 102.71 98.48 105.50 95.25 107.38 C 93.58 107.36 91.92 107.20 90.26 107.07 C 86.90 102.34 82.92 98.10 79.63 93.33 C 80.32 91.49 80.02 89.02 81.78 87.75 C 84.21 85.80 86.54 83.68 89.17 82.00 Z" />
<path fill="#ffffff" opacity="1.00" d=" M 224.25 95.13 C 228.27 91.10 231.49 86.28 235.78 82.54 C 237.47 82.46 239.18 82.52 240.88 82.57 C 243.57 85.06 246.32 87.48 249.07 89.90 C 249.14 91.62 249.22 93.33 249.31 95.05 C 245.55 99.09 241.99 103.30 238.33 107.44 C 236.66 107.52 234.98 107.71 233.31 107.66 C 230.59 105.76 228.21 103.42 225.71 101.24 C 223.95 99.76 224.71 97.14 224.25 95.13 M 230.36 97.05 C 228.98 99.69 232.27 101.29 234.04 102.50 C 237.93 100.01 240.28 95.72 243.55 92.51 C 243.54 92.04 243.52 91.08 243.51 90.60 C 242.03 89.45 240.53 88.32 238.99 87.27 C 236.11 90.52 232.99 93.59 230.36 97.05 Z" />
<path fill="#ffffff" opacity="1.00" d=" M 254.48 99.17 C 255.43 98.54 256.37 97.91 257.32 97.28 C 260.45 101.40 263.35 105.69 266.41 109.87 C 266.12 111.49 265.90 113.13 265.49 114.73 C 263.52 116.67 261.13 118.67 258.16 118.22 C 258.03 118.81 257.77 119.98 257.64 120.56 C 255.93 121.78 254.22 123.00 252.51 124.22 C 252.72 124.61 253.13 125.39 253.34 125.78 C 252.19 126.47 251.05 127.19 249.91 127.88 C 248.50 125.89 247.09 123.89 245.66 121.92 C 248.22 120.07 250.79 118.24 253.31 116.34 C 253.31 115.90 253.31 115.01 253.30 114.57 C 252.47 113.45 251.65 112.33 250.83 111.21 C 249.00 112.65 246.52 113.63 245.87 116.10 C 245.36 117.23 244.16 117.82 243.31 118.66 C 241.51 116.15 239.73 113.63 237.91 111.14 C 238.97 110.38 240.04 109.61 241.11 108.85 C 241.48 109.10 242.22 109.59 242.59 109.84 C 246.39 106.79 250.64 104.32 254.35 101.14 C 254.38 100.65 254.45 99.66 254.48 99.17 M 254.11 108.80 C 255.06 109.97 255.92 111.22 257.02 112.26 C 258.17 113.36 259.46 111.91 260.49 111.33 C 261.59 109.28 259.33 107.56 258.55 105.84 C 257.05 106.80 255.58 107.80 254.11 108.80 Z" />
<path fill="#ffffff" opacity="1.00" d=" M 61.11 111.15 C 63.75 107.85 66.41 104.56 69.03 101.23 C 70.52 102.48 71.97 103.83 72.55 105.75 C 78.00 106.87 83.19 109.70 88.83 109.48 C 89.49 110.00 90.80 111.02 91.46 111.53 C 89.64 113.92 87.75 116.24 85.91 118.62 C 84.37 117.43 82.94 116.09 82.18 114.26 C 81.77 114.30 80.97 114.38 80.57 114.42 C 78.90 116.54 77.06 118.57 75.89 121.04 C 77.79 121.93 79.61 122.98 81.35 124.16 C 79.58 126.44 77.92 128.83 75.89 130.90 C 74.84 130.29 73.88 129.56 72.89 128.87 C 72.75 127.54 72.84 126.11 72.07 124.95 C 69.93 121.02 67.69 117.15 65.73 113.13 C 65.35 113.30 64.58 113.63 64.20 113.80 C 63.17 112.91 62.14 112.03 61.11 111.15 M 70.86 111.10 C 71.94 113.07 73.04 115.04 74.19 116.99 C 75.16 115.65 76.46 114.45 76.90 112.80 C 74.91 112.15 72.88 111.62 70.86 111.10 Z" />
<path fill="#ffffff" opacity="1.00" d=" M 254.11 128.99 C 259.13 127.03 264.03 124.73 269.08 122.83 C 270.97 122.85 272.59 124.06 274.34 124.68 C 275.70 128.11 277.36 131.44 278.47 134.97 C 278.10 138.42 275.81 140.82 272.51 141.71 C 271.72 139.94 270.95 138.16 270.19 136.38 C 271.33 135.61 272.45 134.83 273.55 134.02 C 272.79 132.33 272.13 130.59 271.14 129.02 C 266.71 129.65 262.73 132.02 258.63 133.70 C 256.47 135.35 259.19 137.97 259.67 139.90 C 260.98 139.66 262.29 139.39 263.60 139.09 C 262.78 136.62 265.09 136.13 266.84 135.41 C 267.81 137.86 268.81 140.30 269.72 142.78 C 266.86 143.78 264.17 145.32 261.20 145.96 C 259.59 145.43 257.75 144.99 256.57 143.72 C 254.95 140.57 253.63 137.26 252.47 133.91 C 252.88 132.23 253.54 130.63 254.11 128.99 Z" />
<path fill="#ffffff" opacity="1.00" d=" M 51.17 126.95 C 52.76 126.39 54.31 125.69 55.97 125.35 C 57.93 125.69 59.65 126.85 61.49 127.58 C 61.66 128.14 61.99 129.25 62.16 129.81 C 65.76 128.38 68.53 132.41 72.00 131.21 C 73.08 131.43 74.15 131.73 75.20 132.10 C 74.13 134.45 73.00 136.77 71.94 139.12 C 69.06 137.86 66.35 136.14 63.30 135.27 C 61.48 135.89 61.17 138.35 60.14 139.83 C 61.78 140.64 63.41 141.45 65.06 142.26 C 66.68 140.42 68.54 142.13 70.26 142.81 C 68.87 145.45 67.57 148.13 66.39 150.87 C 65.16 150.53 63.94 150.17 62.72 149.83 C 62.71 149.27 62.69 148.17 62.68 147.61 C 58.23 145.57 53.78 143.51 49.43 141.26 C 49.13 141.59 48.53 142.24 48.24 142.57 C 47.03 141.99 45.82 141.43 44.61 140.87 C 46.81 136.24 49.09 131.64 51.17 126.95 M 51.50 135.98 C 53.21 136.73 54.91 137.48 56.64 138.20 C 57.17 136.68 58.11 135.24 58.26 133.60 C 58.24 131.87 56.36 131.51 55.09 131.00 C 52.80 131.51 52.51 134.25 51.50 135.98 Z" />
<path fill="#ffffff" opacity="1.00" d=" M 191.10 135.40 C 192.62 135.07 194.19 135.27 195.73 135.22 C 195.79 137.48 195.89 139.74 195.90 142.00 C 195.55 140.32 195.49 138.59 195.10 136.92 C 194.45 135.14 192.31 136.20 191.00 136.37 C 193.89 136.35 193.37 138.94 193.81 140.67 C 191.20 140.54 186.62 141.38 186.79 137.41 C 186.22 137.17 185.66 136.93 185.09 136.69 C 185.27 137.53 185.64 139.22 185.82 140.07 C 184.16 140.11 182.56 139.85 181.01 139.30 C 176.53 139.74 171.14 141.17 167.39 137.88 L 167.87 137.18 C 169.51 136.37 171.50 137.12 173.23 136.44 C 175.22 136.35 177.21 136.24 179.20 136.14 L 178.67 137.96 C 179.07 138.11 179.88 138.42 180.29 138.57 L 181.11 136.54 C 184.44 136.06 187.82 136.44 191.16 136.33 C 191.15 136.10 191.12 135.63 191.10 135.40 Z" />
<path fill="#ffffff" opacity="1.00" d=" M 153.31 136.89 C 156.17 136.90 159.01 136.29 161.86 136.34 L 162.48 136.89 C 160.81 140.69 156.43 139.79 153.08 139.87 C 153.14 139.12 153.25 137.64 153.31 136.89 Z" />
<path fill="#ffffff" opacity="1.00" d=" M 123.68 138.45 C 125.18 137.97 126.69 137.52 128.22 137.13 C 128.28 138.37 128.34 139.60 128.40 140.84 C 127.14 140.65 125.89 140.46 124.64 140.23 C 123.81 140.42 122.97 140.62 122.14 140.81 C 122.62 140.03 123.09 139.26 123.57 138.48 L 123.68 138.45 Z" />
<path fill="#ffffff" opacity="1.00" d=" M 161.78 142.08 C 161.31 139.87 163.52 139.18 165.03 138.32 C 166.35 139.24 167.67 140.18 168.98 141.14 C 166.97 142.83 164.10 143.74 161.78 142.08 Z" />
<path fill="#ffffff" opacity="1.00" d=" M 165.09 144.20 C 167.84 143.52 169.91 140.82 172.93 141.15 C 180.58 140.99 188.44 141.52 195.64 144.31 C 196.10 145.23 196.56 146.16 197.01 147.08 C 192.82 148.53 188.34 147.53 184.01 147.63 C 160.69 146.57 137.33 147.25 114.00 146.55 C 117.50 144.00 121.64 142.09 126.05 142.12 C 136.73 141.87 147.41 142.04 158.09 142.02 C 160.69 141.79 162.47 144.55 165.09 144.20 Z" />
<path fill="#ffffff" opacity="1.00" d=" M 222.97 144.86 C 224.64 143.34 226.68 142.15 228.98 141.97 C 230.26 144.33 227.37 146.78 225.11 146.83 C 225.62 149.64 226.29 152.41 227.25 155.10 C 227.32 155.32 227.46 155.75 227.54 155.96 L 227.15 155.68 C 226.87 155.50 226.31 155.14 226.03 154.96 L 225.58 154.71 C 225.67 153.58 225.14 152.60 224.46 151.74 C 224.05 150.21 223.68 148.69 223.31 147.16 C 221.60 146.73 219.90 146.32 218.23 145.78 C 219.81 145.45 221.38 145.14 222.97 144.86 Z" />
<path fill="#ffffff" opacity="1.00" d=" M 279.21 145.87 C 280.02 145.69 281.64 145.34 282.45 145.17 C 283.65 151.11 284.69 157.08 285.80 163.05 C 283.97 163.27 282.14 163.49 280.32 163.72 C 280.26 160.27 280.41 156.81 279.86 153.40 C 277.93 153.73 276.01 154.09 274.10 154.44 C 274.20 154.78 274.42 155.46 274.53 155.80 C 275.95 157.19 276.31 159.15 276.77 161.00 C 274.43 161.36 272.11 161.78 269.80 162.22 C 269.68 159.84 269.72 157.47 269.91 155.10 C 268.11 155.53 266.31 155.93 264.51 156.36 C 264.74 157.20 264.98 158.04 265.22 158.88 L 265.47 159.79 C 265.55 160.10 265.71 160.71 265.80 161.02 C 266.55 162.69 267.18 164.42 267.78 166.16 C 265.97 166.55 264.18 166.94 262.38 167.36 C 261.18 161.43 260.09 155.48 259.04 149.53 C 259.74 149.40 261.14 149.15 261.84 149.03 C 265.52 150.59 269.41 149.08 273.13 148.53 C 275.32 148.08 277.84 147.92 279.21 145.87 Z" />
<path fill="#ffffff" opacity="1.00" d=" M 216.39 149.35 C 217.77 147.38 220.32 148.18 222.35 148.07 C 218.83 153.23 214.49 157.77 210.71 162.73 C 209.39 164.18 208.23 166.32 206.04 166.45 C 204.58 166.03 203.19 165.44 201.80 164.88 C 206.42 159.49 211.40 154.40 216.39 149.35 Z" />
<path fill="#ffffff" opacity="1.00" d=" M 173.29 149.04 C 178.03 149.28 183.11 148.73 187.59 150.50 C 191.12 156.03 188.29 163.09 188.75 169.24 C 186.85 168.17 184.21 167.47 183.74 164.98 C 182.98 161.46 183.43 157.82 183.39 154.25 C 184.23 153.28 185.07 152.30 185.90 151.32 C 181.74 150.35 176.68 152.33 173.29 149.04 Z" />
<path fill="#ffffff" opacity="1.00" d=" M 169.29 154.02 C 169.47 152.12 169.60 149.76 171.43 148.65 C 172.10 155.81 170.61 162.93 170.57 170.09 C 170.16 171.63 170.95 174.29 168.98 174.91 C 156.43 179.03 143.95 183.60 130.95 186.12 C 127.34 186.75 123.67 186.31 120.03 186.33 C 108.98 185.54 97.86 186.20 86.82 185.20 C 94.96 178.96 104.21 172.14 115.03 173.00 C 132.68 173.24 150.36 173.11 167.97 174.09 C 167.98 167.37 169.05 160.72 169.29 154.02 M 93.95 183.47 C 104.92 184.41 115.96 185.16 126.96 184.52 C 115.98 183.77 104.95 183.32 93.95 183.47 Z" />
<path fill="#ffffff" opacity="1.00" d=" M 60.30 153.40 C 61.76 151.78 63.83 152.47 65.70 152.65 C 65.14 155.62 64.47 158.58 63.96 161.56 C 62.04 161.27 60.17 160.73 58.83 159.23 C 55.79 160.63 56.57 164.72 55.49 167.38 C 55.91 167.65 56.74 168.19 57.16 168.46 C 58.90 168.04 60.67 168.38 62.41 168.61 C 61.72 171.54 61.10 174.48 60.42 177.41 C 59.27 177.05 58.12 176.68 56.97 176.32 C 53.73 171.80 48.15 169.77 43.92 166.30 C 42.07 166.70 40.18 166.55 38.30 166.39 C 39.10 162.09 40.17 157.84 40.96 153.54 C 42.68 154.03 44.61 154.31 45.66 155.96 C 50.57 155.30 55.44 154.32 60.30 153.40 M 46.55 161.29 C 48.32 162.81 50.16 164.28 52.25 165.35 C 52.88 163.68 53.22 161.92 53.61 160.18 C 51.25 160.50 48.90 160.89 46.55 161.29 Z" />
<path fill="#ffffff" opacity="1.00" d=" M 160.42 155.30 C 162.81 153.53 165.81 154.04 168.58 154.04 C 168.19 157.55 167.96 161.08 167.73 164.61 C 167.04 164.73 165.67 164.97 164.99 165.09 C 165.76 165.72 167.30 166.96 168.07 167.58 C 165.62 167.67 163.17 167.67 160.72 167.60 C 161.90 166.62 163.14 165.70 164.35 164.75 C 163.30 164.72 161.19 164.65 160.14 164.62 C 160.13 161.51 160.26 158.40 160.42 155.30 Z" />
<path fill="#ffffff" opacity="1.00" d=" M 172.71 154.47 C 173.56 154.70 175.26 155.16 176.11 155.40 C 176.30 157.12 176.24 158.86 175.99 160.58 C 175.07 160.65 173.23 160.79 172.31 160.86 C 172.35 158.73 172.50 156.59 172.71 154.47 Z" />
<path fill="#ffffff" opacity="1.00" d=" M 178.00 155.00 C 179.45 155.00 180.90 155.00 182.35 155.00 C 182.19 157.94 182.88 161.05 181.83 163.86 C 180.40 162.82 179.62 160.87 178.03 159.88 C 178.01 158.25 178.00 156.62 178.00 155.00 Z" />
<path fill="#ffffff" opacity="1.00" d=" M 190.76 154.69 C 192.03 155.36 193.87 155.50 194.54 156.97 C 195.12 159.84 194.95 162.81 194.86 165.72 C 193.35 165.86 191.85 165.98 190.35 166.07 C 190.26 162.27 190.38 158.47 190.76 154.69 Z" />
<path fill="#ffffff" opacity="1.00" d=" M 182.12 165.73 C 183.70 166.78 183.80 168.99 184.70 170.54 C 183.58 170.47 182.45 170.40 181.33 170.34 C 181.79 169.05 180.25 165.71 182.12 165.73 Z" />
<path fill="#ffffff" opacity="1.00" d=" M 196.78 171.81 C 197.90 170.05 198.34 167.98 199.15 166.07 C 200.15 168.62 200.75 172.39 197.99 174.04 C 193.77 175.03 189.39 174.49 185.10 174.79 C 180.93 174.80 176.56 175.32 172.59 173.70 C 177.54 171.58 182.89 173.25 188.04 173.03 C 190.94 172.81 194.28 173.72 196.78 171.81 Z" />
<path fill="#ffffff" opacity="1.00" d=" M 201.47 169.33 C 205.12 168.93 209.01 167.99 212.53 169.57 C 213.56 170.21 215.45 170.89 213.22 172.59 L 213.48 171.01 C 210.08 170.69 206.66 170.61 203.25 170.78 C 204.72 175.25 204.87 180.96 208.94 184.01 C 211.73 185.83 215.34 184.35 218.47 184.71 C 220.49 184.90 222.24 185.88 223.52 187.42 C 219.01 187.68 214.50 187.32 209.99 187.35 C 206.94 187.42 204.67 185.04 202.21 183.60 C 202.01 178.84 201.66 174.09 201.47 169.33 Z" />
<path fill="#ffffff" opacity="1.00" d=" M 262.48 173.70 C 264.50 171.29 266.81 168.94 270.28 169.57 C 270.27 171.51 270.27 173.44 270.30 175.38 C 269.30 175.61 268.32 175.89 267.36 176.23 C 266.90 178.30 267.18 180.44 267.31 182.54 C 268.91 182.31 271.14 183.15 272.15 181.46 C 272.45 178.98 272.15 176.47 272.36 173.99 C 273.08 172.28 274.70 171.13 276.08 169.95 C 278.29 169.49 280.63 169.78 282.85 170.11 C 284.21 171.19 285.31 172.56 286.50 173.84 C 286.47 177.55 286.54 181.27 286.27 184.98 C 284.15 187.21 281.89 189.59 278.49 188.52 C 278.52 186.67 278.55 184.83 278.60 182.98 C 279.34 182.82 280.82 182.50 281.56 182.34 C 282.14 180.41 281.99 178.32 281.62 176.37 C 280.06 176.09 278.48 176.14 276.91 176.10 C 276.71 179.10 276.68 182.11 276.44 185.11 C 275.01 186.22 273.75 187.59 272.14 188.46 C 270.07 188.57 268.00 188.44 265.93 188.32 C 264.74 186.95 263.52 185.61 262.29 184.27 C 262.62 180.75 262.55 177.22 262.48 173.70 Z" />
<path fill="#ffffff" opacity="1.00" d=" M 171.39 178.58 C 172.26 183.06 172.64 188.09 170.76 192.36 C 170.46 187.76 170.94 183.16 171.39 178.58 Z" />
<path fill="#ffffff" opacity="1.00" d=" M 36.81 184.69 C 38.14 181.21 41.50 179.01 45.25 179.80 C 45.26 181.85 45.27 183.89 45.28 185.94 C 44.02 186.07 42.77 186.20 41.51 186.34 C 41.73 188.39 40.74 190.92 42.28 192.59 C 46.96 192.93 51.67 192.47 56.35 192.33 C 56.46 190.42 56.67 188.48 56.39 186.57 C 54.84 185.33 51.94 184.90 51.84 187.66 C 50.96 187.69 49.22 187.75 48.34 187.78 C 48.02 185.15 47.85 182.51 47.81 179.87 C 50.93 179.76 54.04 179.74 57.16 179.70 C 58.25 180.80 59.38 181.86 60.37 183.06 C 61.37 186.60 61.22 190.36 61.02 194.01 C 60.35 195.86 58.60 197.20 57.11 198.42 C 51.71 198.45 46.30 198.70 40.90 198.74 C 39.57 197.42 38.24 196.11 36.91 194.81 C 36.91 191.43 36.81 188.06 36.81 184.69 Z" />
<path fill="#ffffff" opacity="1.00" d=" M 199.44 190.92 C 199.48 189.49 200.03 188.16 200.60 186.87 C 200.97 191.84 201.13 196.87 200.56 201.83 C 200.16 206.86 195.94 210.79 196.77 216.00 C 191.60 215.88 186.38 216.30 181.23 215.62 C 179.65 214.16 180.63 211.64 180.28 209.74 C 185.62 208.81 191.60 209.77 196.53 207.53 C 198.47 202.25 199.22 196.54 199.44 190.92 Z" />
<path fill="#ffffff" opacity="1.00" d=" M 86.61 188.37 C 93.41 187.80 100.22 188.50 107.03 188.35 C 113.71 188.77 120.44 188.26 127.04 189.50 C 127.38 195.82 127.96 202.33 126.65 208.57 C 121.64 210.57 116.10 209.44 110.87 209.45 C 103.89 209.15 96.92 208.82 89.94 208.80 C 88.05 208.55 85.57 209.16 84.47 207.11 C 98.00 206.74 111.54 207.70 125.07 207.22 C 124.76 202.60 126.46 197.58 124.35 193.28 C 123.32 195.46 120.85 194.68 119.01 194.87 C 109.66 194.72 100.33 194.39 90.98 194.38 C 89.33 194.51 85.92 194.36 87.36 191.72 C 95.55 191.59 103.73 192.19 111.94 192.15 C 116.48 192.17 121.16 191.82 125.50 193.44 L 125.35 190.26 C 121.03 191.66 116.46 190.70 112.02 190.84 C 104.68 190.73 97.33 190.85 90.01 190.38 C 88.46 190.67 87.66 189.15 86.61 188.37 Z" />
<path fill="#ffffff" opacity="1.00" d=" M 207.25 190.61 C 218.17 190.99 229.10 191.18 240.04 191.18 C 242.18 190.84 243.47 192.58 244.28 194.26 C 241.97 194.62 239.45 194.21 237.34 195.33 C 234.16 198.69 236.70 205.01 232.44 207.40 C 223.66 207.98 214.85 208.57 206.04 208.94 C 206.14 203.64 206.84 198.39 207.10 193.10 C 218.80 193.77 230.52 193.63 242.22 194.22 L 242.19 192.61 C 234.49 192.14 226.77 192.55 219.07 191.99 C 215.02 192.12 210.83 191.44 206.95 192.93 L 207.25 190.61 M 208.57 195.49 C 208.21 199.40 207.39 203.41 208.30 207.31 C 209.33 203.49 210.13 199.28 208.57 195.49 Z" />
<path fill="#ffffff" opacity="1.00" d=" M 80.20 192.91 C 82.87 191.02 80.95 196.18 80.20 192.91 Z" />
<path fill="#ffffff" opacity="1.00" d=" M 139.43 195.45 C 148.11 190.96 158.23 192.35 167.55 193.38 C 165.56 195.47 162.49 194.50 159.97 195.14 C 156.19 195.61 152.94 198.29 149.03 197.86 C 145.45 198.04 141.37 196.94 138.24 199.20 C 136.08 202.20 136.10 206.22 134.32 209.45 C 133.43 211.13 131.38 210.23 129.97 210.01 C 129.47 203.77 134.03 198.09 139.43 195.45 Z" />
<path fill="#ffffff" opacity="1.00" d=" M 87.22 195.34 C 99.46 195.31 111.70 195.81 123.92 196.19 C 124.05 196.69 124.32 197.68 124.46 198.17 C 112.02 198.66 99.57 197.55 87.11 197.82 C 87.14 197.20 87.19 195.96 87.22 195.34 Z" />
<path fill="#ffffff" opacity="1.00" d=" M 152.35 200.19 C 157.89 196.28 165.31 194.09 171.96 196.19 C 175.59 197.42 177.19 201.35 177.77 204.85 C 178.93 209.43 179.34 214.19 180.84 218.68 C 186.89 218.45 193.02 218.78 199.00 218.84 C 199.22 218.72 199.65 218.47 199.86 218.35 C 199.60 218.95 199.07 220.16 198.81 220.77 C 198.54 221.55 197.99 221.94 197.16 221.92 C 192.11 222.44 187.02 222.62 181.94 222.57 C 180.27 222.71 178.51 221.63 178.11 219.95 C 176.23 214.19 175.98 207.95 173.61 202.35 C 171.70 197.99 165.90 198.35 162.30 200.19 C 159.06 203.46 158.45 208.39 155.89 212.14 C 150.58 212.47 145.18 211.88 139.89 211.29 C 143.01 208.24 147.71 209.64 151.60 209.37 C 151.61 206.30 151.57 203.18 152.35 200.19 Z" />
<path fill="#ffffff" opacity="1.00" d=" M 238.94 196.00 C 241.81 196.19 245.12 195.23 247.38 197.55 C 244.88 197.85 242.36 197.87 239.85 197.93 C 238.31 202.02 238.27 206.56 236.34 210.52 C 234.63 207.56 236.11 204.29 236.58 201.21 C 236.85 199.26 237.65 197.48 238.94 196.00 Z" />
<path fill="#ffffff" opacity="1.00" d=" M 77.34 204.47 C 77.33 201.85 77.34 199.23 77.38 196.61 C 79.37 196.63 81.36 196.64 83.36 196.66 C 83.37 199.44 83.37 202.22 83.32 205.00 C 81.32 204.83 79.33 204.66 77.34 204.47 Z" />
<path fill="#ffffff" opacity="1.00" d=" M 274.08 200.24 C 275.28 198.81 276.14 197.14 277.16 195.58 C 277.83 197.26 278.48 198.96 279.14 200.65 C 280.93 201.11 282.72 201.57 284.52 202.02 C 283.15 203.27 281.69 204.43 280.49 205.85 C 280.47 207.62 280.67 209.39 280.80 211.16 C 279.22 210.20 277.70 209.13 276.02 208.37 C 274.25 208.90 272.60 209.71 270.91 210.43 C 271.35 208.63 271.78 206.83 272.22 205.04 C 271.04 203.60 269.86 202.16 268.70 200.71 C 270.48 200.53 272.32 200.64 274.08 200.24 Z" />
<path fill="#ffffff" opacity="1.00" d=" M 87.24 199.32 C 99.44 199.49 111.62 200.00 123.82 200.19 L 123.86 202.35 C 111.57 202.43 99.29 201.62 86.99 201.86 C 87.05 201.23 87.18 199.96 87.24 199.32 Z" />
<path fill="#ffffff" opacity="1.00" d=" M 139.26 200.00 C 142.49 199.98 145.73 200.07 148.96 200.14 C 148.87 202.59 148.83 205.04 148.85 207.49 C 145.38 207.31 141.91 207.35 138.45 207.39 C 138.77 204.93 139.07 202.47 139.26 200.00 M 142.20 201.16 C 144.09 202.47 145.95 203.82 147.79 205.19 C 147.73 203.76 147.67 202.32 147.63 200.89 C 145.82 200.95 144.00 201.04 142.20 201.16 Z" />
<path fill="#ffffff" opacity="1.00" d=" M 86.71 203.03 C 99.31 203.30 111.97 202.85 124.53 203.94 C 123.54 204.84 122.61 206.14 121.07 205.84 C 113.04 205.73 105.01 205.68 96.99 205.36 C 93.78 205.19 90.47 205.80 87.34 204.94 C 87.18 204.46 86.86 203.51 86.71 203.03 Z" />
<path fill="#ffffff" opacity="1.00" d=" M 48.13 210.25 C 49.12 208.69 50.09 207.11 51.08 205.55 C 51.77 207.23 52.45 208.91 53.13 210.59 C 54.92 211.05 56.72 211.51 58.51 211.97 C 57.13 213.14 55.75 214.30 54.34 215.44 C 54.49 217.33 54.65 219.22 54.82 221.11 C 53.17 220.17 51.65 218.97 49.87 218.29 C 48.10 218.84 46.44 219.69 44.75 220.47 C 45.25 218.67 45.83 216.86 45.94 214.98 C 45.06 213.39 43.82 212.04 42.73 210.59 C 44.53 210.49 46.33 210.36 48.13 210.25 Z" />
<path fill="#ffffff" opacity="1.00" d=" M 74.36 209.17 C 74.83 208.47 75.30 207.76 75.77 207.06 C 75.60 207.65 75.24 208.82 75.07 209.41 C 75.03 210.31 75.41 210.93 76.22 211.27 C 102.82 212.60 129.43 213.52 156.01 215.09 C 156.02 218.56 155.86 222.03 155.74 225.51 C 154.27 225.41 152.80 225.33 151.34 225.25 C 150.92 221.85 152.15 218.71 154.11 216.00 C 148.95 215.98 143.79 215.85 138.65 216.40 C 141.45 216.71 144.25 216.94 147.04 217.22 C 146.67 219.79 147.94 223.72 145.00 225.08 C 140.68 225.86 136.29 225.02 131.95 224.97 C 123.65 224.79 115.34 224.59 107.05 224.03 C 99.14 223.84 91.22 223.74 83.37 222.72 C 83.30 219.89 83.18 217.06 83.10 214.24 C 80.07 213.40 77.07 212.41 74.20 211.11 C 74.45 214.09 74.62 217.07 74.85 220.05 C 74.15 216.47 73.82 212.79 74.36 209.17 M 88.03 215.97 C 86.29 217.24 87.14 219.50 87.79 221.11 C 90.78 221.56 95.19 222.15 95.91 218.21 C 94.62 215.09 90.78 215.03 88.03 215.97 M 114.53 216.65 C 112.48 217.97 112.53 221.96 114.94 222.88 C 117.25 223.23 119.63 223.37 121.95 223.05 C 125.12 222.39 124.97 217.10 121.95 216.47 C 119.50 216.30 116.91 216.01 114.53 216.65 Z" />
<path fill="#ffffff" opacity="1.00" d=" M 239.83 210.49 C 240.93 209.47 242.04 208.46 243.16 207.46 C 247.66 211.97 247.52 220.69 242.74 224.96 C 241.90 223.98 241.06 223.00 240.23 222.03 C 243.48 219.84 245.25 215.74 243.10 212.12 C 242.00 211.58 240.91 211.04 239.83 210.49 Z" />
<path fill="#ffffff" opacity="1.00" d=" M 163.60 212.38 C 164.72 210.54 167.82 210.41 169.02 212.24 C 170.38 214.25 170.82 216.72 171.42 219.03 L 170.88 219.21 C 169.63 218.92 168.40 218.59 167.12 218.49 C 169.64 219.36 170.25 221.76 170.63 224.13 C 170.78 223.40 171.08 221.93 171.22 221.20 C 171.44 221.20 171.87 221.21 172.08 221.21 C 172.68 225.45 170.82 229.62 169.32 233.51 C 168.48 236.05 164.88 237.00 163.28 234.64 C 159.15 227.99 159.23 218.90 163.60 212.38 M 165.54 224.20 C 165.85 225.38 166.17 226.56 166.50 227.75 C 167.54 227.64 168.57 227.54 169.61 227.44 C 169.78 226.85 170.10 225.68 170.27 225.09 C 168.55 225.86 167.06 224.82 165.54 224.20 Z" />
<path fill="#ffffff" opacity="1.00" d=" M 239.25 212.83 C 240.60 213.17 242.82 213.06 242.86 215.00 C 242.79 216.41 242.52 217.78 242.05 219.13 C 241.36 219.62 240.68 220.13 240.01 220.66 C 239.87 218.04 239.51 215.44 239.25 212.83 Z" />
<path fill="#ffffff" opacity="1.00" d=" M 266.17 221.86 C 266.62 221.91 267.51 222.01 267.96 222.06 C 267.49 224.12 266.73 226.10 266.01 228.08 C 267.08 228.59 268.16 229.10 269.24 229.62 C 270.26 228.28 270.47 224.83 272.82 226.20 C 272.51 227.61 272.04 228.98 271.62 230.37 C 273.38 231.02 275.15 231.68 276.93 232.32 C 278.05 230.24 278.00 226.48 281.17 226.67 C 280.30 229.55 279.21 232.37 278.11 235.17 C 275.72 234.27 273.34 233.37 270.96 232.48 C 270.20 232.95 269.44 233.43 268.68 233.91 C 269.01 230.68 265.27 230.54 263.18 229.36 C 264.19 226.86 265.01 224.28 266.17 221.86 Z" />
<path fill="#ffffff" opacity="1.00" d=" M 48.20 242.75 C 52.67 239.13 56.94 235.28 61.50 231.78 C 61.54 232.34 61.62 233.47 61.66 234.03 C 59.75 236.35 57.14 237.99 54.90 239.98 C 57.98 240.00 61.07 239.60 64.15 239.87 L 65.36 241.63 C 59.65 242.16 53.93 242.54 48.20 242.75 Z" />
<path fill="#ffffff" opacity="1.00" d=" M 260.68 233.58 C 264.76 235.25 268.85 237.11 272.54 239.56 C 275.87 242.14 272.28 248.19 268.43 246.49 C 264.67 244.83 260.98 242.97 257.40 240.95 C 257.56 240.49 257.87 239.58 258.03 239.13 C 262.19 240.64 265.80 243.41 270.09 244.61 L 271.26 244.08 C 271.41 243.53 271.71 242.44 271.86 241.89 C 268.39 238.95 263.80 237.86 260.09 235.28 L 260.68 233.58 Z" />
<path fill="#ffffff" opacity="1.00" d=" M 59.32 245.42 C 65.17 242.90 71.85 248.86 70.47 254.94 C 69.69 260.49 62.48 263.38 58.09 259.88 C 52.82 256.59 53.39 247.65 59.32 245.42 M 60.25 247.40 C 55.94 248.92 55.34 255.29 58.94 257.90 C 61.94 260.56 67.38 258.97 68.26 254.99 C 69.75 250.43 64.76 245.58 60.25 247.40 Z" />
<path fill="#ffffff" opacity="1.00" d=" M 250.81 253.04 C 251.98 248.15 258.01 244.87 262.57 247.47 C 265.34 248.76 266.30 251.80 267.07 254.51 C 267.75 254.87 269.11 255.58 269.79 255.94 C 268.84 256.76 267.73 257.26 266.45 257.45 C 264.81 260.15 262.49 262.93 259.06 263.04 C 253.80 263.75 249.14 258.06 250.81 253.04 M 253.05 252.99 C 251.63 256.39 254.16 260.76 257.92 260.88 C 260.85 261.35 262.92 259.01 264.45 256.89 C 262.71 256.71 260.97 256.56 259.23 256.43 C 259.21 255.90 259.17 254.83 259.16 254.29 C 261.09 254.38 263.03 254.46 264.98 254.53 C 264.16 252.67 263.63 250.34 261.58 249.44 C 258.41 247.70 254.07 249.55 253.05 252.99 Z" />
<path fill="#ffffff" opacity="1.00" d=" M 74.19 261.11 C 74.09 259.85 71.52 257.57 74.22 257.31 C 75.96 259.57 78.97 261.75 78.74 264.84 C 77.34 264.90 76.64 263.59 75.72 262.77 C 71.77 265.30 68.50 268.86 64.25 270.91 C 62.29 269.59 64.82 268.54 65.56 267.64 C 68.40 265.42 71.35 263.33 74.19 261.11 Z" />
<path fill="#ffffff" opacity="1.00" d=" M 240.08 264.05 C 242.07 261.95 244.56 258.28 247.94 260.05 C 250.24 261.29 249.99 264.06 249.60 266.25 C 252.37 266.95 255.14 267.66 257.87 268.51 C 255.14 271.42 251.20 268.43 247.92 268.10 C 249.64 269.73 251.51 271.21 253.10 272.98 C 252.90 273.47 252.51 274.43 252.32 274.92 C 250.46 273.34 248.64 271.73 246.85 270.08 C 246.10 270.08 244.59 270.08 243.83 270.08 C 244.54 267.19 241.82 265.75 240.08 264.05 M 244.41 262.48 C 241.46 263.51 246.18 267.92 247.25 265.12 C 249.12 263.20 246.24 260.37 244.41 262.48 Z" />
<path fill="#ffffff" opacity="1.00" d=" M 74.75 268.77 C 77.44 269.30 79.03 266.82 80.86 265.36 C 82.64 267.51 85.93 270.00 84.27 273.16 C 83.10 275.77 80.01 275.31 77.79 274.59 C 76.82 277.25 75.85 279.91 74.79 282.53 C 71.76 279.77 75.52 276.04 76.02 272.88 C 74.11 274.53 72.32 276.34 70.23 277.77 C 69.98 277.39 69.48 276.64 69.23 276.26 C 71.18 273.83 74.64 272.26 74.75 268.77 M 77.71 271.18 C 79.01 272.36 80.62 273.06 82.36 273.37 C 82.73 271.43 82.08 269.67 80.86 268.19 C 79.81 269.18 78.75 270.17 77.71 271.18 Z" />
<path fill="#ffffff" opacity="1.00" d=" M 233.19 272.96 C 233.53 269.65 238.24 267.73 240.42 270.54 C 243.16 273.59 246.44 276.32 248.39 279.96 L 246.85 280.58 C 244.92 278.90 243.32 276.89 241.65 274.97 C 240.62 275.80 239.58 276.62 238.54 277.46 C 240.31 279.56 242.15 281.62 243.96 283.70 C 243.52 284.01 242.65 284.61 242.21 284.92 C 240.08 282.62 238.26 279.58 234.90 279.06 C 234.67 276.92 233.56 275.04 233.19 272.96 M 235.83 271.85 C 234.77 273.49 236.11 274.99 237.19 276.14 C 238.22 275.20 239.25 274.26 240.28 273.32 C 239.04 272.27 237.53 270.61 235.83 271.85 Z" />
<path fill="#ffffff" opacity="1.00" d=" M 88.53 273.88 C 90.78 275.60 92.94 277.43 95.07 279.29 C 94.55 279.80 94.03 280.30 93.52 280.81 C 92.07 279.50 90.67 278.10 88.98 277.11 C 88.07 277.85 87.31 278.75 86.53 279.62 C 87.19 281.00 90.78 282.23 88.72 283.97 C 87.37 283.31 86.17 282.39 84.95 281.55 C 83.74 282.97 82.54 284.39 81.34 285.81 C 82.59 287.60 86.89 288.85 85.12 291.45 C 82.59 289.97 80.49 287.91 78.32 285.98 C 79.80 284.25 81.30 282.52 82.80 280.80 C 82.86 279.60 82.92 278.40 82.99 277.20 C 83.50 277.43 84.51 277.90 85.02 278.13 C 86.19 276.72 87.36 275.30 88.53 273.88 Z" />
<path fill="#ffffff" opacity="1.00" d=" M 226.93 276.68 C 230.79 280.24 234.46 284.02 238.28 287.64 C 237.50 288.32 236.65 289.62 235.73 288.27 C 234.10 286.91 232.65 285.34 231.10 283.89 C 231.75 286.49 232.42 289.07 233.02 291.68 C 230.84 290.22 228.66 288.76 226.42 287.40 C 227.64 290.03 228.97 292.65 229.48 295.54 C 227.04 295.00 226.41 292.54 225.40 290.64 C 223.86 287.44 222.23 284.29 220.84 281.02 C 223.70 282.85 226.50 284.77 229.42 286.51 C 228.62 283.22 227.69 279.97 226.93 276.68 Z" />
<path fill="#ffffff" opacity="1.00" d=" M 213.70 284.95 C 216.23 284.66 217.05 287.15 218.14 288.87 C 220.07 292.40 222.63 295.66 223.64 299.62 C 221.23 299.15 220.28 296.91 219.16 295.05 C 217.29 291.71 215.10 288.53 213.70 284.95 Z" />
<path fill="#ffffff" opacity="1.00" d=" M 203.35 291.56 C 205.44 288.67 209.07 287.68 212.31 286.65 C 211.90 288.16 210.78 289.20 209.68 290.21 C 211.68 294.37 213.81 298.47 215.76 302.66 C 215.19 302.66 214.03 302.66 213.46 302.66 C 211.34 298.97 209.71 295.02 207.81 291.21 C 206.33 291.37 204.84 291.49 203.35 291.56 Z" />
<path fill="#ffffff" opacity="1.00" d=" M 106.28 288.35 C 109.54 286.50 113.80 290.75 111.68 293.97 C 109.59 297.75 108.14 302.17 104.69 304.95 C 104.20 301.75 106.59 299.24 107.92 296.59 C 106.71 295.92 105.50 295.26 104.29 294.61 C 103.04 296.92 102.04 299.43 100.27 301.42 L 98.86 300.96 C 99.44 297.75 102.80 295.18 101.51 291.75 C 103.39 291.05 104.73 289.55 106.28 288.35 M 105.19 292.45 C 106.39 293.24 107.59 294.02 108.79 294.80 C 109.47 293.32 110.96 291.13 108.81 290.15 C 107.06 289.67 106.23 291.43 105.19 292.45 Z" />
<path fill="#ffffff" opacity="1.00" d=" M 196.24 293.41 C 196.64 293.36 197.43 293.26 197.82 293.22 C 199.92 297.28 201.29 301.68 203.16 305.85 C 205.47 305.10 207.96 303.06 210.27 305.00 C 207.59 306.45 204.76 307.60 201.91 308.67 C 200.17 303.54 197.17 298.76 196.24 293.41 Z" />
<path fill="#ffffff" opacity="1.00" d=" M 112.39 303.18 C 111.32 298.19 116.07 293.28 121.08 293.98 C 122.52 294.30 125.39 294.46 124.66 296.63 C 121.74 296.46 118.23 295.32 115.99 297.91 C 113.05 300.80 114.74 305.27 117.67 307.41 C 118.67 305.02 119.61 302.60 120.49 300.17 C 121.06 300.24 122.21 300.38 122.78 300.45 C 121.54 303.69 120.26 306.92 118.99 310.16 C 116.02 308.82 112.82 306.71 112.39 303.18 Z" />
<path fill="#ffffff" opacity="1.00" d=" M 190.47 295.17 C 193.00 294.38 192.96 297.12 193.62 298.58 C 194.48 301.74 195.66 304.84 196.08 308.10 C 195.64 311.51 190.84 313.21 188.63 310.38 C 186.58 306.07 185.63 301.31 184.55 296.69 C 185.08 296.87 186.15 297.25 186.68 297.43 C 188.20 301.09 188.62 305.12 190.27 308.74 C 190.89 310.45 193.83 309.71 193.81 307.96 C 193.11 303.59 191.28 299.51 190.47 295.17 Z" />
<path fill="#ffffff" opacity="1.00" d=" M 125.59 302.69 C 128.26 301.70 128.22 298.69 128.94 296.38 C 131.66 297.64 136.53 296.61 137.20 300.38 C 134.94 300.01 132.72 299.53 130.49 299.02 C 130.26 299.85 129.81 301.50 129.59 302.33 C 130.97 303.21 133.75 303.06 133.55 305.35 C 131.97 305.25 130.40 305.10 128.84 304.87 C 128.50 306.71 128.18 308.55 127.90 310.41 C 129.71 311.39 134.79 310.65 133.07 313.84 C 130.31 313.37 127.65 312.50 124.96 311.79 C 125.35 308.80 127.83 305.45 125.59 302.69 Z" />
<path fill="#ffffff" opacity="1.00" d=" M 140.10 298.54 C 141.97 300.31 143.78 302.14 145.58 303.99 C 146.02 301.95 145.34 298.79 148.43 299.02 C 147.75 304.23 147.23 309.46 146.31 314.63 C 145.77 314.84 144.68 315.26 144.14 315.48 C 144.41 312.61 144.98 309.77 145.04 306.89 C 144.12 305.53 142.85 304.45 141.69 303.31 C 141.04 306.83 140.95 310.45 140.05 313.92 C 139.53 314.08 138.48 314.41 137.96 314.58 C 138.59 309.22 139.34 303.88 140.10 298.54 Z" />
<path fill="#ffffff" opacity="1.00" d=" M 179.42 298.63 C 181.50 303.59 183.04 308.76 184.88 313.82 C 184.27 313.84 183.05 313.87 182.44 313.89 C 181.74 311.58 181.00 309.28 180.23 306.99 C 179.44 309.57 178.92 312.21 178.43 314.86 C 177.01 312.52 175.63 310.17 174.25 307.82 C 174.22 310.38 174.30 312.94 174.07 315.50 C 173.55 315.52 172.52 315.57 172.00 315.59 C 171.81 310.32 171.88 305.04 172.09 299.77 C 173.91 302.78 175.63 305.85 177.45 308.87 C 178.06 305.45 178.71 302.03 179.42 298.63 Z" />
<path fill="#ffffff" opacity="1.00" d=" M 149.65 300.35 C 152.70 300.11 155.76 300.22 158.82 300.33 C 158.80 300.87 158.75 301.94 158.73 302.48 C 157.97 302.47 156.44 302.45 155.68 302.45 C 155.44 306.91 155.67 311.40 155.10 315.85 C 154.59 316.01 153.56 316.34 153.05 316.51 C 153.20 311.92 153.37 307.33 153.48 302.74 C 151.96 302.35 150.53 301.71 149.65 300.35 Z" />
</g>
<g id="#120905ff">
<path fill="#120905" opacity="1.00" d=" M 139.11 64.38 C 140.91 64.13 142.72 63.86 144.54 63.72 C 145.64 68.48 146.98 73.27 147.26 78.16 C 145.60 78.82 143.83 79.16 142.12 79.62 C 141.15 74.53 140.10 69.46 139.11 64.38 M 140.38 65.48 C 141.31 69.67 142.18 73.87 142.96 78.09 C 144.07 77.82 145.18 77.55 146.30 77.29 C 145.36 73.24 144.59 69.16 143.88 65.07 C 142.71 65.20 141.54 65.34 140.38 65.48 Z" />
<path fill="#120905" opacity="1.00" d=" M 96.82 75.40 C 102.84 72.34 108.80 69.18 114.75 66.00 C 115.99 68.22 117.16 70.49 118.20 72.82 C 115.65 74.36 112.83 75.27 109.98 76.08 C 109.63 76.68 108.93 77.89 108.58 78.49 C 111.01 78.05 113.31 76.15 115.75 76.35 C 117.73 78.47 118.63 81.39 119.92 83.96 C 121.20 83.64 122.48 83.33 123.76 83.03 C 124.83 85.12 125.89 87.23 126.91 89.34 C 120.79 92.27 114.88 95.57 108.86 98.68 C 107.99 97.27 107.10 95.87 106.21 94.47 C 105.83 96.65 105.73 98.89 105.12 101.02 C 102.48 103.69 99.46 106.01 96.41 108.19 C 94.35 108.80 92.10 108.27 89.98 108.42 C 90.97 109.48 91.97 110.54 92.97 111.60 C 90.70 114.39 88.76 117.50 86.06 119.91 C 84.16 118.81 82.47 117.40 80.73 116.07 C 79.87 117.33 78.55 118.39 78.15 119.90 C 79.55 121.58 81.26 122.97 82.87 124.44 C 78.39 129.15 74.80 134.62 72.56 140.74 C 69.36 139.15 66.14 137.61 62.84 136.26 C 62.59 137.47 62.33 138.67 62.08 139.88 C 65.45 140.19 68.92 140.41 71.81 142.35 C 68.06 148.63 65.80 155.60 64.91 162.84 C 62.51 162.38 60.11 161.89 57.71 161.43 C 57.55 162.99 57.31 164.54 57.28 166.11 C 59.11 167.40 61.56 167.28 63.68 167.77 C 62.97 171.35 62.23 174.94 61.47 178.52 C 60.51 178.43 58.59 178.26 57.64 178.17 C 59.16 180.34 61.91 182.05 61.91 184.98 C 62.09 189.01 63.39 194.00 60.24 197.24 C 59.14 198.44 57.85 199.85 56.03 199.58 C 50.69 199.45 45.33 200.09 40.01 199.57 C 34.26 196.51 35.91 189.27 35.74 183.92 C 37.05 181.68 38.97 178.73 41.93 178.90 C 46.67 179.21 51.39 178.55 56.13 178.49 C 55.07 174.22 50.72 172.64 47.56 170.23 C 44.55 167.87 40.62 167.84 37.04 167.07 C 37.92 162.09 39.03 157.16 40.07 152.22 C 42.70 152.90 45.28 153.80 47.94 154.35 C 51.69 154.01 55.44 153.33 59.08 152.40 C 61.06 151.98 61.46 149.93 61.45 148.21 C 57.26 146.76 53.56 143.80 49.02 143.48 C 46.90 143.34 44.98 142.40 43.05 141.59 C 45.47 136.50 47.57 131.23 50.42 126.37 C 52.75 124.59 56.27 123.40 58.98 125.09 C 62.56 127.17 66.31 129.80 70.61 129.68 C 70.86 129.01 71.35 127.67 71.60 127.00 C 70.05 123.21 67.74 119.78 65.87 116.15 C 63.59 114.72 61.44 113.08 59.33 111.42 C 62.66 107.76 65.19 103.35 68.93 100.08 C 71.16 101.13 72.95 102.90 74.39 104.89 C 78.26 106.24 82.24 107.25 86.15 108.48 C 86.82 108.14 88.15 107.47 88.82 107.13 C 85.67 102.66 81.67 98.79 78.83 94.11 C 78.85 92.12 79.20 90.16 79.42 88.18 C 82.59 85.69 85.49 82.81 88.95 80.71 C 91.13 80.63 93.29 81.12 95.44 81.43 C 98.70 86.02 102.22 90.43 106.16 94.46 C 107.43 90.89 104.77 87.89 103.37 84.84 C 102.50 82.94 101.24 81.22 99.24 80.42 C 98.37 78.77 97.57 77.09 96.82 75.40 M 98.28 75.98 C 98.82 77.10 99.36 78.22 99.91 79.33 C 100.38 79.40 101.31 79.54 101.78 79.61 C 104.19 83.65 106.31 87.89 108.33 92.14 C 108.12 92.57 107.70 93.41 107.49 93.83 C 108.09 94.91 108.69 95.99 109.28 97.07 C 114.66 94.32 119.98 91.44 125.37 88.72 C 124.55 87.16 123.72 85.60 122.89 84.04 C 119.91 85.88 117.33 88.32 114.11 89.77 C 113.16 87.91 112.26 86.02 111.60 84.04 C 112.67 84.21 113.75 84.39 114.82 84.59 C 115.96 84.02 117.10 83.46 118.25 82.90 C 117.15 80.93 116.10 78.93 115.06 76.93 C 113.11 78.15 111.32 79.59 109.58 81.09 C 108.72 79.47 107.89 77.83 107.10 76.18 C 110.17 74.42 113.64 73.68 116.88 72.34 C 116.04 70.81 115.25 69.24 114.19 67.85 C 108.76 70.31 103.64 73.39 98.28 75.98 M 89.17 82.00 C 86.54 83.68 84.21 85.80 81.78 87.75 C 80.02 89.02 80.32 91.49 79.63 93.33 C 82.92 98.10 86.90 102.34 90.26 107.07 C 91.92 107.20 93.58 107.36 95.25 107.38 C 98.48 105.50 101.06 102.71 104.18 100.65 C 104.40 98.91 104.70 97.16 104.69 95.40 C 103.10 92.81 101.04 90.56 99.13 88.21 C 97.15 89.80 95.15 91.38 93.18 93.00 C 93.86 93.94 94.54 94.88 95.22 95.83 C 95.73 95.58 96.74 95.09 97.25 94.85 C 97.90 96.14 99.51 97.43 98.78 99.02 C 97.53 100.51 95.82 101.68 93.85 101.93 C 91.46 98.50 88.52 95.47 86.19 92.01 C 85.28 89.58 88.08 88.61 89.42 87.19 C 89.89 87.31 90.82 87.53 91.29 87.65 C 91.70 88.16 92.53 89.19 92.94 89.70 C 94.42 88.40 95.90 87.11 97.35 85.78 C 96.38 84.66 95.43 83.54 94.48 82.40 C 92.73 82.28 90.88 81.43 89.17 82.00 M 116.37 85.13 C 115.45 85.34 113.81 86.24 114.49 87.39 C 116.09 88.93 119.45 84.82 116.37 85.13 M 87.23 91.03 C 89.16 94.79 92.41 97.72 94.99 101.05 C 96.15 99.76 97.37 98.47 97.88 96.77 C 97.20 96.98 95.83 97.39 95.15 97.60 C 93.51 95.71 91.72 93.67 92.39 90.95 C 91.58 89.98 90.77 89.02 89.95 88.06 C 89.00 89.01 88.10 90.00 87.23 91.03 M 61.11 111.15 C 62.14 112.03 63.17 112.91 64.20 113.80 C 64.58 113.63 65.35 113.30 65.73 113.13 C 67.69 117.15 69.93 121.02 72.07 124.95 C 72.84 126.11 72.75 127.54 72.89 128.87 C 73.88 129.56 74.84 130.29 75.89 130.90 C 77.92 128.83 79.58 126.44 81.35 124.16 C 79.61 122.98 77.79 121.93 75.89 121.04 C 77.06 118.57 78.90 116.54 80.57 114.42 C 80.97 114.38 81.77 114.30 82.18 114.26 C 82.94 116.09 84.37 117.43 85.91 118.62 C 87.75 116.24 89.64 113.92 91.46 111.53 C 90.80 111.02 89.49 110.00 88.83 109.48 C 83.19 109.70 78.00 106.87 72.55 105.75 C 71.97 103.83 70.52 102.48 69.03 101.23 C 66.41 104.56 63.75 107.85 61.11 111.15 M 51.17 126.95 C 49.09 131.64 46.81 136.24 44.61 140.87 C 45.82 141.43 47.03 141.99 48.24 142.57 C 48.53 142.24 49.13 141.59 49.43 141.26 C 53.78 143.51 58.23 145.57 62.68 147.61 C 62.69 148.17 62.71 149.27 62.72 149.83 C 63.94 150.17 65.16 150.53 66.39 150.87 C 67.57 148.13 68.87 145.45 70.26 142.81 C 68.54 142.13 66.68 140.42 65.06 142.26 C 63.41 141.45 61.78 140.64 60.14 139.83 C 61.17 138.35 61.48 135.89 63.30 135.27 C 66.35 136.14 69.06 137.86 71.94 139.12 C 73.00 136.77 74.13 134.45 75.20 132.10 C 74.15 131.73 73.08 131.43 72.00 131.21 C 68.53 132.41 65.76 128.38 62.16 129.81 C 61.99 129.25 61.66 128.14 61.49 127.58 C 59.65 126.85 57.93 125.69 55.97 125.35 C 54.31 125.69 52.76 126.39 51.17 126.95 M 60.30 153.40 C 55.44 154.32 50.57 155.30 45.66 155.96 C 44.61 154.31 42.68 154.03 40.96 153.54 C 40.17 157.84 39.10 162.09 38.30 166.39 C 40.18 166.55 42.07 166.70 43.92 166.30 C 48.15 169.77 53.73 171.80 56.97 176.32 C 58.12 176.68 59.27 177.05 60.42 177.41 C 61.10 174.48 61.72 171.54 62.41 168.61 C 60.67 168.38 58.90 168.04 57.16 168.46 C 56.74 168.19 55.91 167.65 55.49 167.38 C 56.57 164.72 55.79 160.63 58.83 159.23 C 60.17 160.73 62.04 161.27 63.96 161.56 C 64.47 158.58 65.14 155.62 65.70 152.65 C 63.83 152.47 61.76 151.78 60.30 153.40 M 36.81 184.69 C 36.81 188.06 36.91 191.43 36.91 194.81 C 38.24 196.11 39.57 197.42 40.90 198.74 C 46.30 198.70 51.71 198.45 57.11 198.42 C 58.60 197.20 60.35 195.86 61.02 194.01 C 61.22 190.36 61.37 186.60 60.37 183.06 C 59.38 181.86 58.25 180.80 57.16 179.70 C 54.04 179.74 50.93 179.76 47.81 179.87 C 47.85 182.51 48.02 185.15 48.34 187.78 C 49.22 187.75 50.96 187.69 51.84 187.66 C 51.94 184.90 54.84 185.33 56.39 186.57 C 56.67 188.48 56.46 190.42 56.35 192.33 C 51.67 192.47 46.96 192.93 42.28 192.59 C 40.74 190.92 41.73 188.39 41.51 186.34 C 42.77 186.20 44.02 186.07 45.28 185.94 C 45.27 183.89 45.26 181.85 45.25 179.80 C 41.50 179.01 38.14 181.21 36.81 184.69 M 42.91 187.24 C 42.64 188.67 42.49 190.12 42.46 191.58 C 46.85 191.58 51.23 191.41 55.61 191.34 C 55.42 189.61 55.40 187.80 54.35 186.33 C 53.81 189.90 49.97 188.47 47.53 188.89 C 47.69 185.63 44.98 186.64 42.91 187.24 Z" />
<path fill="#120905" opacity="1.00" d=" M 213.23 71.09 C 214.25 69.48 215.26 67.86 216.29 66.25 C 222.07 69.78 228.10 72.88 233.95 76.29 C 232.79 78.48 231.62 80.67 230.48 82.87 C 229.14 82.26 227.80 81.65 226.47 81.05 C 225.42 84.07 223.93 86.90 222.23 89.60 C 220.00 88.25 217.68 86.94 215.07 86.50 C 215.91 87.62 216.78 88.73 217.67 89.82 C 216.62 91.78 215.54 93.71 214.45 95.64 C 210.81 93.34 207.04 91.25 203.23 89.24 C 204.23 87.44 205.25 85.65 206.36 83.91 C 210.53 82.27 211.29 77.11 213.72 73.75 C 213.55 72.87 213.39 71.98 213.23 71.09 M 216.48 67.98 C 215.87 69.02 215.27 70.07 214.67 71.11 C 214.87 71.56 215.26 72.47 215.46 72.93 C 213.45 76.70 211.48 80.52 209.18 84.12 C 207.29 85.24 205.74 86.74 204.82 88.76 C 207.93 90.37 210.96 92.16 214.06 93.82 C 214.80 92.54 215.54 91.27 216.30 90.01 C 215.65 89.68 214.36 89.04 213.71 88.72 C 214.52 87.06 215.38 85.42 216.24 83.79 C 217.99 85.37 219.78 86.91 221.78 88.19 C 222.80 86.24 223.86 84.31 224.90 82.37 C 223.91 81.83 222.92 81.28 221.93 80.73 C 220.69 80.87 219.53 80.69 218.44 80.20 C 219.18 78.54 220.08 76.95 220.95 75.35 C 224.22 76.87 226.73 79.50 229.70 81.47 C 230.61 79.92 231.51 78.35 232.44 76.81 C 227.12 73.87 221.88 70.77 216.48 67.98 M 221.46 78.04 C 220.93 79.28 222.98 80.41 223.90 79.57 C 224.41 78.34 222.37 77.13 221.46 78.04 Z" />
<path fill="#120905" opacity="1.00" d=" M 233.27 83.20 C 235.12 80.62 238.74 81.19 241.44 81.64 C 244.45 83.99 247.06 86.81 250.13 89.10 C 250.25 91.23 250.36 93.36 250.47 95.49 C 246.87 99.40 243.39 103.42 240.01 107.52 C 245.32 108.54 248.62 103.13 252.87 100.91 C 252.76 100.47 252.52 99.60 252.40 99.17 C 254.17 98.07 255.78 96.48 257.91 96.14 C 261.36 100.41 264.30 105.07 267.60 109.46 C 267.28 111.54 266.93 113.62 266.59 115.70 C 264.36 117.39 261.99 118.91 259.39 119.97 C 258.14 121.53 256.62 122.84 255.09 124.12 C 254.52 125.40 254.06 126.80 253.00 127.78 C 251.94 128.39 250.87 128.98 249.79 129.55 C 247.73 126.96 245.79 124.29 244.00 121.53 C 246.76 119.56 249.53 117.62 252.37 115.77 C 251.78 114.74 251.19 113.72 250.61 112.70 C 247.96 115.21 246.38 118.89 242.62 120.01 C 240.60 116.89 238.45 113.86 236.26 110.85 C 236.85 110.32 238.02 109.26 238.61 108.73 C 236.51 108.70 234.41 108.71 232.32 108.69 C 229.47 105.96 226.06 103.76 223.67 100.60 C 223.27 98.59 223.33 96.53 223.24 94.49 C 226.64 90.78 229.84 86.88 233.27 83.20 M 224.25 95.13 C 224.71 97.14 223.95 99.76 225.71 101.24 C 228.21 103.42 230.59 105.76 233.31 107.66 C 234.98 107.71 236.66 107.52 238.33 107.44 C 241.99 103.30 245.55 99.09 249.31 95.05 C 249.22 93.33 249.14 91.62 249.07 89.90 C 246.32 87.48 243.57 85.06 240.88 82.57 C 239.18 82.52 237.47 82.46 235.78 82.54 C 231.49 86.28 228.27 91.10 224.25 95.13 M 254.48 99.17 C 254.45 99.66 254.38 100.65 254.35 101.14 C 250.64 104.32 246.39 106.79 242.59 109.84 C 242.22 109.59 241.48 109.10 241.11 108.85 C 240.04 109.61 238.97 110.38 237.91 111.14 C 239.73 113.63 241.51 116.15 243.31 118.66 C 244.16 117.82 245.36 117.23 245.87 116.10 C 246.52 113.63 249.00 112.65 250.83 111.21 C 251.65 112.33 252.47 113.45 253.30 114.57 C 253.31 115.01 253.31 115.90 253.31 116.34 C 250.79 118.24 248.22 120.07 245.66 121.92 C 247.09 123.89 248.50 125.89 249.91 127.88 C 251.05 127.19 252.19 126.47 253.34 125.78 C 253.13 125.39 252.72 124.61 252.51 124.22 C 254.22 123.00 255.93 121.78 257.64 120.56 C 257.77 119.98 258.03 118.81 258.16 118.22 C 261.13 118.67 263.52 116.67 265.49 114.73 C 265.90 113.13 266.12 111.49 266.41 109.87 C 263.35 105.69 260.45 101.40 257.32 97.28 C 256.37 97.91 255.43 98.54 254.48 99.17 Z" />
<path fill="#120905" opacity="1.00" d=" M 230.36 97.05 C 232.99 93.59 236.11 90.52 238.99 87.27 C 240.53 88.32 242.03 89.45 243.51 90.60 C 243.52 91.08 243.54 92.04 243.55 92.51 C 240.28 95.72 237.93 100.01 234.04 102.50 C 232.27 101.29 228.98 99.69 230.36 97.05 M 239.10 89.13 C 235.84 91.88 233.26 95.34 230.77 98.78 C 232.02 99.57 233.27 100.37 234.53 101.15 C 237.09 97.87 239.92 94.81 242.78 91.79 C 241.55 91.00 240.67 89.12 239.10 89.13 Z" />
<path fill="#120905" opacity="1.00" d=" M 254.11 108.80 C 255.58 107.80 257.05 106.80 258.55 105.84 C 259.33 107.56 261.59 109.28 260.49 111.33 C 259.46 111.91 258.17 113.36 257.02 112.26 C 255.92 111.22 255.06 109.97 254.11 108.80 M 257.11 108.47 C 255.77 109.45 257.52 111.58 258.79 110.62 C 260.11 109.64 258.38 107.52 257.11 108.47 Z" />
<path fill="#120905" opacity="1.00" d=" M 70.86 111.10 C 72.88 111.62 74.91 112.15 76.90 112.80 C 76.46 114.45 75.16 115.65 74.19 116.99 C 73.04 115.04 71.94 113.07 70.86 111.10 Z" />
<path fill="#120905" opacity="1.00" d=" M 253.00 127.78 C 258.83 126.49 263.89 123.00 269.64 121.54 C 271.57 122.06 273.38 122.95 275.21 123.73 C 276.65 127.47 278.66 131.01 279.64 134.91 C 279.33 136.92 278.50 138.84 277.47 140.58 C 272.72 143.08 267.49 144.55 262.75 147.10 C 264.84 149.48 267.91 148.23 270.55 147.86 C 273.18 147.27 276.38 147.32 277.93 144.68 C 279.79 144.48 281.65 144.30 283.52 144.15 C 284.62 150.76 286.16 157.30 286.94 163.97 C 284.45 164.34 281.94 164.64 279.44 164.88 C 278.86 161.78 278.79 158.64 278.92 155.51 C 278.37 155.27 277.27 154.80 276.72 154.57 C 277.09 157.00 277.51 159.44 277.91 161.87 C 275.09 162.41 272.26 162.96 269.46 163.59 C 268.84 161.19 268.34 158.76 267.86 156.33 C 266.93 157.12 266.28 158.26 265.22 158.88 C 264.98 158.04 264.74 157.20 264.51 156.36 C 266.31 155.93 268.11 155.53 269.91 155.10 C 269.72 157.47 269.68 159.84 269.80 162.22 C 272.11 161.78 274.43 161.36 276.77 161.00 C 276.31 159.15 275.95 157.19 274.53 155.80 C 274.42 155.46 274.20 154.78 274.10 154.44 C 276.01 154.09 277.93 153.73 279.86 153.40 C 280.41 156.81 280.26 160.27 280.32 163.72 C 282.14 163.49 283.97 163.27 285.80 163.05 C 284.69 157.08 283.65 151.11 282.45 145.17 C 281.64 145.34 280.02 145.69 279.21 145.87 C 277.84 147.92 275.32 148.08 273.13 148.53 C 269.41 149.08 265.52 150.59 261.84 149.03 C 261.14 149.15 259.74 149.40 259.04 149.53 C 260.09 155.48 261.18 161.43 262.38 167.36 C 264.18 166.94 265.97 166.55 267.78 166.16 C 267.18 164.42 266.55 162.69 265.80 161.02 C 265.71 160.71 265.55 160.10 265.47 159.79 L 265.83 159.35 C 268.49 160.89 268.22 164.44 268.89 167.07 C 266.42 167.59 263.96 168.13 261.50 168.69 C 260.18 162.00 258.53 155.34 258.08 148.51 C 258.94 148.34 260.65 148.00 261.50 147.83 C 259.64 146.78 257.72 145.86 255.77 145.01 C 254.25 141.38 252.31 137.87 251.35 134.04 C 251.69 131.90 252.47 129.87 253.00 127.78 M 254.11 128.99 C 253.54 130.63 252.88 132.23 252.47 133.91 C 253.63 137.26 254.95 140.57 256.57 143.72 C 257.75 144.99 259.59 145.43 261.20 145.96 C 264.17 145.32 266.86 143.78 269.72 142.78 C 268.81 140.30 267.81 137.86 266.84 135.41 C 265.09 136.13 262.78 136.62 263.60 139.09 C 262.29 139.39 260.98 139.66 259.67 139.90 C 259.19 137.97 256.47 135.35 258.63 133.70 C 262.73 132.02 266.71 129.65 271.14 129.02 C 272.13 130.59 272.79 132.33 273.55 134.02 C 272.45 134.83 271.33 135.61 270.19 136.38 C 270.95 138.16 271.72 139.94 272.51 141.71 C 275.81 140.82 278.10 138.42 278.47 134.97 C 277.36 131.44 275.70 128.11 274.34 124.68 C 272.59 124.06 270.97 122.85 269.08 122.83 C 264.03 124.73 259.13 127.03 254.11 128.99 M 258.72 135.00 C 259.44 136.23 259.62 137.94 260.97 138.70 C 262.39 135.82 266.01 132.94 269.10 135.38 C 270.04 134.90 270.98 134.42 271.92 133.93 C 271.63 132.69 271.34 131.45 271.06 130.21 C 266.72 131.17 262.74 133.19 258.72 135.00 Z" />
<path fill="#120905" opacity="1.00" d=" M 168.99 135.31 C 175.91 134.68 182.89 135.06 189.84 134.91 C 190.16 135.03 190.79 135.28 191.10 135.40 C 191.12 135.63 191.15 136.10 191.16 136.33 C 187.82 136.44 184.44 136.06 181.11 136.54 L 180.29 138.57 C 179.88 138.42 179.07 138.11 178.67 137.96 L 179.20 136.14 C 177.21 136.24 175.22 136.35 173.23 136.44 C 171.88 136.32 170.55 136.07 169.26 135.69 L 168.99 135.31 Z" />
<path fill="#120905" opacity="1.00" d=" M 123.68 138.45 C 124.82 136.14 127.34 136.06 129.58 135.85 C 130.49 137.11 131.09 138.76 132.53 139.53 C 135.61 140.35 136.28 136.08 139.06 135.80 C 139.74 136.78 140.34 137.83 140.95 138.87 C 144.11 138.89 147.26 138.89 150.42 138.87 C 150.87 137.20 151.58 135.66 153.44 135.22 L 153.31 136.89 C 153.25 137.64 153.14 139.12 153.08 139.87 C 156.43 139.79 160.81 140.69 162.48 136.89 C 162.64 136.67 162.97 136.25 163.14 136.03 C 164.60 135.14 166.70 134.97 167.89 136.40 L 167.87 137.18 L 167.39 137.88 C 171.14 141.17 176.53 139.74 181.01 139.30 C 182.56 139.85 184.16 140.11 185.82 140.07 C 185.64 139.22 185.27 137.53 185.09 136.69 C 185.66 136.93 186.22 137.17 186.79 137.41 C 186.62 141.38 191.20 140.54 193.81 140.67 C 193.37 138.94 193.89 136.35 191.00 136.37 C 192.31 136.20 194.45 135.14 195.10 136.92 C 195.49 138.59 195.55 140.32 195.90 142.00 C 201.00 147.44 200.18 155.35 201.59 162.16 C 205.81 158.55 209.60 154.47 213.65 150.68 C 215.54 149.06 216.33 146.67 217.54 144.58 C 218.73 143.45 220.17 142.65 221.52 141.73 C 221.69 140.24 221.77 138.73 222.20 137.29 C 225.00 136.59 228.78 135.41 230.97 138.01 C 232.58 139.33 232.85 141.83 231.35 143.35 C 228.71 146.73 228.53 151.17 227.25 155.10 C 226.29 152.41 225.62 149.64 225.11 146.83 C 227.37 146.78 230.26 144.33 228.98 141.97 C 226.68 142.15 224.64 143.34 222.97 144.86 C 221.38 145.14 219.81 145.45 218.23 145.78 C 219.90 146.32 221.60 146.73 223.31 147.16 C 223.68 148.69 224.05 150.21 224.46 151.74 C 225.14 152.60 225.67 153.58 225.58 154.71 L 225.60 154.97 C 222.24 155.17 221.57 158.66 220.19 161.01 C 218.55 164.92 214.81 168.75 217.00 173.21 C 215.16 174.41 212.82 175.09 211.51 176.93 C 211.46 179.44 212.44 181.82 213.06 184.21 C 211.69 184.16 210.31 184.09 208.94 184.01 C 204.87 180.96 204.72 175.25 203.25 170.78 C 206.66 170.61 210.08 170.69 213.48 171.01 L 213.22 172.59 C 215.45 170.89 213.56 170.21 212.53 169.57 C 209.01 167.99 205.12 168.93 201.47 169.33 C 201.66 174.09 202.01 178.84 202.21 183.60 C 204.67 185.04 206.94 187.42 209.99 187.35 C 214.50 187.32 219.01 187.68 223.52 187.42 C 222.24 185.88 220.49 184.90 218.47 184.71 C 219.52 181.61 220.53 178.45 220.73 175.15 C 221.20 175.06 222.15 174.88 222.62 174.80 C 222.10 177.53 221.26 180.21 221.06 183.00 C 224.14 187.37 229.58 187.61 234.17 189.28 C 237.37 189.74 240.67 189.15 243.82 190.04 C 246.39 192.95 248.02 196.56 250.45 199.59 C 251.28 201.03 253.14 200.76 254.50 201.23 C 254.50 202.04 254.49 203.67 254.48 204.48 C 252.52 204.75 250.56 205.00 248.60 205.24 C 248.53 211.55 248.79 217.99 247.00 224.12 C 250.42 224.94 253.80 225.99 257.03 227.43 C 256.60 231.62 251.69 232.13 248.52 233.39 C 228.05 238.75 206.82 240.27 185.81 242.13 C 178.22 242.79 170.56 242.46 162.99 243.54 C 150.33 243.78 137.66 243.78 124.99 243.76 C 110.96 243.86 96.89 243.31 83.03 241.05 C 79.70 240.37 76.10 239.80 73.43 237.52 C 73.61 233.90 78.41 233.31 81.08 231.99 C 80.18 228.99 79.39 225.95 78.29 223.01 C 77.10 222.15 75.03 221.77 74.85 220.05 C 74.62 217.07 74.45 214.09 74.20 211.11 C 77.07 212.41 80.07 213.40 83.10 214.24 C 83.18 217.06 83.30 219.89 83.37 222.72 C 91.22 223.74 99.14 223.84 107.05 224.03 C 115.34 224.59 123.65 224.79 131.95 224.97 C 136.29 225.02 140.68 225.86 145.00 225.08 C 147.94 223.72 146.67 219.79 147.04 217.22 C 144.25 216.94 141.45 216.71 138.65 216.40 C 143.79 215.85 148.95 215.98 154.11 216.00 C 152.15 218.71 150.92 221.85 151.34 225.25 C 152.80 225.33 154.27 225.41 155.74 225.51 C 155.86 222.03 156.02 218.56 156.01 215.09 C 129.43 213.52 102.82 212.60 76.22 211.27 C 75.41 210.93 75.03 210.31 75.07 209.41 C 75.24 208.82 75.60 207.65 75.77 207.06 C 77.82 202.56 74.78 196.83 78.64 193.09 L 79.06 195.00 C 80.78 195.00 82.49 195.00 84.21 195.00 C 83.93 193.92 83.64 192.84 83.35 191.77 C 83.94 189.09 83.62 185.92 85.72 183.83 C 89.61 179.38 94.42 175.64 100.03 173.62 C 101.57 172.76 104.43 172.47 103.97 170.10 C 103.39 169.22 102.75 168.39 102.08 167.59 C 101.02 163.07 100.78 158.42 100.82 153.80 C 102.72 151.91 105.37 151.68 107.91 151.56 C 108.57 149.97 109.21 148.38 109.85 146.79 C 112.88 143.05 117.64 141.75 122.14 140.81 C 122.97 140.62 123.81 140.42 124.64 140.23 C 125.89 140.46 127.14 140.65 128.40 140.84 C 128.34 139.60 128.28 138.37 128.22 137.13 C 126.69 137.52 125.18 137.97 123.68 138.45 M 161.78 142.08 C 164.10 143.74 166.97 142.83 168.98 141.14 C 167.67 140.18 166.35 139.24 165.03 138.32 C 163.52 139.18 161.31 139.87 161.78 142.08 M 165.09 144.20 C 162.47 144.55 160.69 141.79 158.09 142.02 C 147.41 142.04 136.73 141.87 126.05 142.12 C 121.64 142.09 117.50 144.00 114.00 146.55 C 137.33 147.25 160.69 146.57 184.01 147.63 C 188.34 147.53 192.82 148.53 197.01 147.08 C 196.56 146.16 196.10 145.23 195.64 144.31 C 188.44 141.52 180.58 140.99 172.93 141.15 C 169.91 140.82 167.84 143.52 165.09 144.20 M 216.39 149.35 C 211.40 154.40 206.42 159.49 201.80 164.88 C 203.19 165.44 204.58 166.03 206.04 166.45 C 208.23 166.32 209.39 164.18 210.71 162.73 C 214.49 157.77 218.83 153.23 222.35 148.07 C 220.32 148.18 217.77 147.38 216.39 149.35 M 173.29 149.04 C 176.68 152.33 181.74 150.35 185.90 151.32 C 185.07 152.30 184.23 153.28 183.39 154.25 C 183.43 157.82 182.98 161.46 183.74 164.98 C 184.21 167.47 186.85 168.17 188.75 169.24 C 188.29 163.09 191.12 156.03 187.59 150.50 C 183.11 148.73 178.03 149.28 173.29 149.04 M 169.29 154.02 C 169.05 160.72 167.98 167.37 167.97 174.09 C 150.36 173.11 132.68 173.24 115.03 173.00 C 104.21 172.14 94.96 178.96 86.82 185.20 C 97.86 186.20 108.98 185.54 120.03 186.33 C 123.67 186.31 127.34 186.75 130.95 186.12 C 143.95 183.60 156.43 179.03 168.98 174.91 C 170.95 174.29 170.16 171.63 170.57 170.09 C 170.61 162.93 172.10 155.81 171.43 148.65 C 169.60 149.76 169.47 152.12 169.29 154.02 M 107.23 169.88 C 108.31 169.56 110.28 170.14 110.55 168.60 C 111.32 163.29 112.23 157.88 111.54 152.52 C 108.86 157.84 106.82 163.84 107.23 169.88 M 114.38 153.30 C 113.65 158.16 112.89 163.08 113.23 168.00 C 113.60 170.34 116.31 169.92 118.05 169.93 C 119.87 170.15 121.43 168.63 121.79 166.94 C 122.85 162.56 123.30 157.95 122.57 153.49 C 120.05 151.89 117.09 153.04 114.38 153.30 M 160.42 155.30 C 160.26 158.40 160.13 161.51 160.14 164.62 C 161.19 164.65 163.30 164.72 164.35 164.75 C 163.14 165.70 161.90 166.62 160.72 167.60 C 163.17 167.67 165.62 167.67 168.07 167.58 C 167.30 166.96 165.76 165.72 164.99 165.09 C 165.67 164.97 167.04 164.73 167.73 164.61 C 167.96 161.08 168.19 157.55 168.58 154.04 C 165.81 154.04 162.81 153.53 160.42 155.30 M 133.33 155.53 C 131.57 156.75 132.10 159.17 131.97 161.00 C 132.06 162.65 131.71 165.41 133.96 165.69 C 139.96 166.16 146.01 165.60 152.00 166.39 C 154.56 167.04 155.95 164.29 155.82 162.13 C 155.94 159.74 156.69 155.29 153.15 155.18 C 146.55 155.06 139.81 153.69 133.33 155.53 M 172.71 154.47 C 172.50 156.59 172.35 158.73 172.31 160.86 C 173.23 160.79 175.07 160.65 175.99 160.58 C 176.24 158.86 176.30 157.12 176.11 155.40 C 175.26 155.16 173.56 154.70 172.71 154.47 M 178.00 155.00 C 178.00 156.62 178.01 158.25 178.03 159.88 C 179.62 160.87 180.40 162.82 181.83 163.86 C 182.88 161.05 182.19 157.94 182.35 155.00 C 180.90 155.00 179.45 155.00 178.00 155.00 M 190.76 154.69 C 190.38 158.47 190.26 162.27 190.35 166.07 C 191.85 165.98 193.35 165.86 194.86 165.72 C 194.95 162.81 195.12 159.84 194.54 156.97 C 193.87 155.50 192.03 155.36 190.76 154.69 M 182.12 165.73 C 180.25 165.71 181.79 169.05 181.33 170.34 C 182.45 170.40 183.58 170.47 184.70 170.54 C 183.80 168.99 183.70 166.78 182.12 165.73 M 196.78 171.81 C 194.28 173.72 190.94 172.81 188.04 173.03 C 182.89 173.25 177.54 171.58 172.59 173.70 C 176.56 175.32 180.93 174.80 185.10 174.79 C 189.39 174.49 193.77 175.03 197.99 174.04 C 200.75 172.39 200.15 168.62 199.15 166.07 C 198.34 167.98 197.90 170.05 196.78 171.81 M 171.39 178.58 C 170.94 183.16 170.46 187.76 170.76 192.36 C 172.64 188.09 172.26 183.06 171.39 178.58 M 199.44 190.92 C 199.22 196.54 198.47 202.25 196.53 207.53 C 191.60 209.77 185.62 208.81 180.28 209.74 C 180.63 211.64 179.65 214.16 181.23 215.62 C 186.38 216.30 191.60 215.88 196.77 216.00 C 195.94 210.79 200.16 206.86 200.56 201.83 C 201.13 196.87 200.97 191.84 200.60 186.87 C 200.03 188.16 199.48 189.49 199.44 190.92 M 86.61 188.37 C 87.66 189.15 88.46 190.67 90.01 190.38 C 97.33 190.85 104.68 190.73 112.02 190.84 C 116.46 190.70 121.03 191.66 125.35 190.26 L 125.50 193.44 C 121.16 191.82 116.48 192.17 111.94 192.15 C 103.73 192.19 95.55 191.59 87.36 191.72 C 85.92 194.36 89.33 194.51 90.98 194.38 C 100.33 194.39 109.66 194.72 119.01 194.87 C 120.85 194.68 123.32 195.46 124.35 193.28 C 126.46 197.58 124.76 202.60 125.07 207.22 C 111.54 207.70 98.00 206.74 84.47 207.11 C 85.57 209.16 88.05 208.55 89.94 208.80 C 96.92 208.82 103.89 209.15 110.87 209.45 C 116.10 209.44 121.64 210.57 126.65 208.57 C 127.96 202.33 127.38 195.82 127.04 189.50 C 120.44 188.26 113.71 188.77 107.03 188.35 C 100.22 188.50 93.41 187.80 86.61 188.37 M 207.25 190.61 L 206.95 192.93 C 210.83 191.44 215.02 192.12 219.07 191.99 C 226.77 192.55 234.49 192.14 242.19 192.61 L 242.22 194.22 C 230.52 193.63 218.80 193.77 207.10 193.10 C 206.84 198.39 206.14 203.64 206.04 208.94 C 214.85 208.57 223.66 207.98 232.44 207.40 C 236.70 205.01 234.16 198.69 237.34 195.33 C 239.45 194.21 241.97 194.62 244.28 194.26 C 243.47 192.58 242.18 190.84 240.04 191.18 C 229.10 191.18 218.17 190.99 207.25 190.61 M 139.43 195.45 C 134.03 198.09 129.47 203.77 129.97 210.01 C 131.38 210.23 133.43 211.13 134.32 209.45 C 136.10 206.22 136.08 202.20 138.24 199.20 C 141.37 196.94 145.45 198.04 149.03 197.86 C 152.94 198.29 156.19 195.61 159.97 195.14 C 162.49 194.50 165.56 195.47 167.55 193.38 C 158.23 192.35 148.11 190.96 139.43 195.45 M 87.22 195.34 C 87.19 195.96 87.14 197.20 87.11 197.82 C 99.57 197.55 112.02 198.66 124.46 198.17 C 124.32 197.68 124.05 196.69 123.92 196.19 C 111.70 195.81 99.46 195.31 87.22 195.34 M 152.35 200.19 C 151.57 203.18 151.61 206.30 151.60 209.37 C 147.71 209.64 143.01 208.24 139.89 211.29 C 145.18 211.88 150.58 212.47 155.89 212.14 C 158.45 208.39 159.06 203.46 162.30 200.19 C 165.90 198.35 171.70 197.99 173.61 202.35 C 175.98 207.95 176.23 214.19 178.11 219.95 C 178.51 221.63 180.27 222.71 181.94 222.57 C 187.02 222.62 192.11 222.44 197.16 221.92 C 197.99 221.94 198.54 221.55 198.81 220.77 C 201.89 221.57 205.09 221.53 208.24 221.26 C 206.31 218.85 203.00 216.60 199.86 218.35 C 199.65 218.47 199.22 218.72 199.00 218.84 C 193.02 218.78 186.89 218.45 180.84 218.68 C 179.34 214.19 178.93 209.43 177.77 204.85 C 177.19 201.35 175.59 197.42 171.96 196.19 C 165.31 194.09 157.89 196.28 152.35 200.19 M 238.94 196.00 C 237.65 197.48 236.85 199.26 236.58 201.21 C 236.11 204.29 234.63 207.56 236.34 210.52 C 238.27 206.56 238.31 202.02 239.85 197.93 C 242.36 197.87 244.88 197.85 247.38 197.55 C 245.12 195.23 241.81 196.19 238.94 196.00 M 77.34 204.47 C 79.33 204.66 81.32 204.83 83.32 205.00 C 83.37 202.22 83.37 199.44 83.36 196.66 C 81.36 196.64 79.37 196.63 77.38 196.61 C 77.34 199.23 77.33 201.85 77.34 204.47 M 87.24 199.32 C 87.18 199.96 87.05 201.23 86.99 201.86 C 99.29 201.62 111.57 202.43 123.86 202.35 L 123.82 200.19 C 111.62 200.00 99.44 199.49 87.24 199.32 M 139.26 200.00 C 139.07 202.47 138.77 204.93 138.45 207.39 C 141.91 207.35 145.38 207.31 148.85 207.49 C 148.83 205.04 148.87 202.59 148.96 200.14 C 145.73 200.07 142.49 199.98 139.26 200.00 M 86.71 203.03 C 86.86 203.51 87.18 204.46 87.34 204.94 C 90.47 205.80 93.78 205.19 96.99 205.36 C 105.01 205.68 113.04 205.73 121.07 205.84 C 122.61 206.14 123.54 204.84 124.53 203.94 C 111.97 202.85 99.31 203.30 86.71 203.03 M 239.83 210.49 C 240.91 211.04 242.00 211.58 243.10 212.12 C 245.25 215.74 243.48 219.84 240.23 222.03 C 241.06 223.00 241.90 223.98 242.74 224.96 C 247.52 220.69 247.66 211.97 243.16 207.46 C 242.04 208.46 240.93 209.47 239.83 210.49 M 163.60 212.38 C 159.23 218.90 159.15 227.99 163.28 234.64 C 164.88 237.00 168.48 236.05 169.32 233.51 C 170.82 229.62 172.68 225.45 172.08 221.21 C 171.87 221.21 171.44 221.20 171.22 221.20 C 171.08 221.93 170.78 223.40 170.63 224.13 C 170.25 221.76 169.64 219.36 167.12 218.49 C 168.40 218.59 169.63 218.92 170.88 219.21 L 171.42 219.03 C 170.82 216.72 170.38 214.25 169.02 212.24 C 167.82 210.41 164.72 210.54 163.60 212.38 M 239.25 212.83 C 239.51 215.44 239.87 218.04 240.01 220.66 C 240.68 220.13 241.36 219.62 242.05 219.13 C 242.52 217.78 242.79 216.41 242.86 215.00 C 242.82 213.06 240.60 213.17 239.25 212.83 M 213.48 221.43 C 216.05 221.56 218.63 221.62 221.20 221.66 C 221.01 220.08 220.83 218.49 220.65 216.90 C 217.56 217.06 215.34 219.18 213.48 221.43 Z" />
<path fill="#120905" opacity="1.00" d=" M 226.03 154.96 C 226.31 155.14 226.87 155.50 227.15 155.68 C 227.08 156.08 226.93 156.89 226.86 157.29 L 226.12 157.22 C 226.09 156.66 226.05 155.52 226.03 154.96 Z" />
<path fill="#120905" opacity="1.00" d=" M 225.13 161.68 C 224.31 160.43 224.55 159.67 225.86 159.39 C 226.68 160.64 226.43 161.41 225.13 161.68 Z" />
<path fill="#120905" opacity="1.00" d=" M 224.14 165.63 C 223.33 164.38 223.58 163.62 224.90 163.37 C 225.70 164.62 225.45 165.38 224.14 165.63 Z" />
<path fill="#120905" opacity="1.00" d=" M 223.12 169.67 C 222.31 168.42 222.57 167.67 223.89 167.41 C 224.70 168.66 224.44 169.41 223.12 169.67 Z" />
<path fill="#120905" opacity="1.00" d=" M 261.49 172.52 C 263.00 171.21 264.50 169.89 266.00 168.57 C 267.78 168.60 269.56 168.63 271.35 168.66 C 271.37 169.56 271.40 171.37 271.42 172.27 C 272.92 171.08 274.36 169.80 276.00 168.80 C 278.00 168.39 280.07 168.60 282.08 168.88 C 284.70 169.10 285.94 171.72 287.63 173.36 C 287.58 177.42 287.58 181.47 287.47 185.52 C 286.02 186.91 284.78 188.62 283.01 189.60 C 281.15 189.75 279.28 189.65 277.41 189.63 C 277.38 188.72 277.31 186.89 277.27 185.97 C 275.97 187.14 274.69 188.34 273.42 189.54 C 270.76 189.57 268.11 189.55 265.45 189.51 C 264.07 188.05 262.48 186.73 261.43 185.00 C 261.18 180.85 261.50 176.68 261.49 172.52 M 262.48 173.70 C 262.55 177.22 262.62 180.75 262.29 184.27 C 263.52 185.61 264.74 186.95 265.93 188.32 C 268.00 188.44 270.07 188.57 272.14 188.46 C 273.75 187.59 275.01 186.22 276.44 185.11 C 276.68 182.11 276.71 179.10 276.91 176.10 C 278.48 176.14 280.06 176.09 281.62 176.37 C 281.99 178.32 282.14 180.41 281.56 182.34 C 280.82 182.50 279.34 182.82 278.60 182.98 C 278.55 184.83 278.52 186.67 278.49 188.52 C 281.89 189.59 284.15 187.21 286.27 184.98 C 286.54 181.27 286.47 177.55 286.50 173.84 C 285.31 172.56 284.21 171.19 282.85 170.11 C 280.63 169.78 278.29 169.49 276.08 169.95 C 274.70 171.13 273.08 172.28 272.36 173.99 C 272.15 176.47 272.45 178.98 272.15 181.46 C 271.14 183.15 268.91 182.31 267.31 182.54 C 267.18 180.44 266.90 178.30 267.36 176.23 C 268.32 175.89 269.30 175.61 270.30 175.38 C 270.27 173.44 270.27 171.51 270.28 169.57 C 266.81 168.94 264.50 171.29 262.48 173.70 M 268.25 177.08 C 268.21 178.49 268.16 179.90 268.12 181.31 C 268.90 181.32 270.45 181.34 271.23 181.36 C 271.24 179.77 271.25 178.19 271.26 176.61 C 270.51 176.73 269.01 176.96 268.25 177.08 M 277.93 177.14 C 277.84 178.65 277.75 180.16 277.67 181.67 C 278.48 181.59 280.09 181.44 280.89 181.36 C 280.83 179.99 280.77 178.62 280.71 177.25 C 280.02 177.22 278.63 177.17 277.93 177.14 Z" />
<path fill="#120905" opacity="1.00" d=" M 222.18 171.62 L 222.93 171.57 C 224.13 172.25 222.66 174.76 221.66 173.41 C 221.79 172.96 222.05 172.07 222.18 171.62 Z" />
<path fill="#120905" opacity="1.00" d=" M 93.95 183.47 C 104.95 183.32 115.98 183.77 126.96 184.52 C 115.96 185.16 104.92 184.41 93.95 183.47 Z" />
<path fill="#120905" opacity="1.00" d=" M 273.25 199.45 C 274.63 197.27 276.02 195.09 277.45 192.94 C 278.31 195.19 279.00 197.55 280.25 199.64 C 282.47 200.49 284.83 200.90 287.14 201.44 C 285.36 202.96 283.50 204.39 281.95 206.15 C 281.38 208.46 281.83 210.89 281.78 213.25 C 279.83 212.04 277.89 210.82 275.97 209.57 C 273.67 210.56 271.37 211.55 269.10 212.61 C 269.68 210.19 270.56 207.80 270.72 205.30 C 269.36 203.23 267.61 201.46 266.02 199.58 C 268.43 199.53 270.84 199.47 273.25 199.45 M 274.08 200.24 C 272.32 200.64 270.48 200.53 268.70 200.71 C 269.86 202.16 271.04 203.60 272.22 205.04 C 271.78 206.83 271.35 208.63 270.91 210.43 C 272.60 209.71 274.25 208.90 276.02 208.37 C 277.70 209.13 279.22 210.20 280.80 211.16 C 280.67 209.39 280.47 207.62 280.49 205.85 C 281.69 204.43 283.15 203.27 284.52 202.02 C 282.72 201.57 280.93 201.11 279.14 200.65 C 278.48 198.96 277.83 197.26 277.16 195.58 C 276.14 197.14 275.28 198.81 274.08 200.24 Z" />
<path fill="#120905" opacity="1.00" d=" M 208.57 195.49 C 210.13 199.28 209.33 203.49 208.30 207.31 C 207.39 203.41 208.21 199.40 208.57 195.49 Z" />
<path fill="#120905" opacity="1.00" d=" M 142.20 201.16 C 144.00 201.04 145.82 200.95 147.63 200.89 C 147.67 202.32 147.73 203.76 147.79 205.19 C 145.95 203.82 144.09 202.47 142.20 201.16 Z" />
<path fill="#120905" opacity="1.00" d=" M 47.09 209.13 C 48.81 207.27 50.01 205.02 51.39 202.92 C 52.29 205.17 52.98 207.53 54.25 209.60 C 56.47 210.42 58.83 210.76 61.14 211.25 C 59.38 212.82 57.50 214.28 55.93 216.04 C 55.28 218.34 55.85 220.81 55.83 223.17 C 53.87 221.96 51.91 220.74 49.97 219.52 C 47.72 220.43 45.46 221.29 43.17 222.09 C 43.73 219.77 44.55 217.47 44.63 215.07 C 43.23 213.12 41.58 211.37 40.01 209.56 C 42.37 209.47 44.75 209.49 47.09 209.13 M 48.13 210.25 C 46.33 210.36 44.53 210.49 42.73 210.59 C 43.82 212.04 45.06 213.39 45.94 214.98 C 45.83 216.86 45.25 218.67 44.75 220.47 C 46.44 219.69 48.10 218.84 49.87 218.29 C 51.65 218.97 53.17 220.17 54.82 221.11 C 54.65 219.22 54.49 217.33 54.34 215.44 C 55.75 214.30 57.13 213.14 58.51 211.97 C 56.72 211.51 54.92 211.05 53.13 210.59 C 52.45 208.91 51.77 207.23 51.08 205.55 C 50.09 207.11 49.12 208.69 48.13 210.25 Z" />
<path fill="#120905" opacity="1.00" d=" M 88.03 215.97 C 90.78 215.03 94.62 215.09 95.91 218.21 C 95.19 222.15 90.78 221.56 87.79 221.11 C 87.14 219.50 86.29 217.24 88.03 215.97 Z" />
<path fill="#120905" opacity="1.00" d=" M 114.53 216.65 C 116.91 216.01 119.50 216.30 121.95 216.47 C 124.97 217.10 125.12 222.39 121.95 223.05 C 119.63 223.37 117.25 223.23 114.94 222.88 C 112.53 221.96 112.48 217.97 114.53 216.65 Z" />
<path fill="#120905" opacity="1.00" d=" M 165.54 224.20 C 167.06 224.82 168.55 225.86 170.27 225.09 C 170.10 225.68 169.78 226.85 169.61 227.44 C 168.57 227.54 167.54 227.64 166.50 227.75 C 166.17 226.56 165.85 225.38 165.54 224.20 Z" />
</g>
</svg>
